<?xml version="1.0" encoding="utf-8"?>
<!-- Generator: Adobe Illustrator 16.0.3, SVG Export Plug-In . SVG Version: 6.00 Build 0)  -->
<!DOCTYPE svg PUBLIC "-//W3C//DTD SVG 1.1//EN" "http://www.w3.org/Graphics/SVG/1.1/DTD/svg11.dtd">
<svg version="1.1" id="Layer_1" xmlns="http://www.w3.org/2000/svg" xmlns:xlink="http://www.w3.org/1999/xlink" x="0px" y="0px"
	 width="175.462px" height="52.642px" viewBox="0 0 175.462 52.642" enable-background="new 0 0 175.462 52.642"
	 xml:space="preserve">
<path fill="#FFFFFF" d="M175.462,50.022c0,0.126,0,0.284-0.049,0.493c-0.037,0.212-0.075,0.369-0.123,0.441
	c-0.384-0.038-1.563-0.055-3.528-0.055h-0.511l-0.048-0.158l0.033-1.332c0.034-0.458,0.053-1.055,0.053-1.775
	c0-0.738-0.021-1.333-0.053-1.789l-0.033-1.352l0.048-0.141h1.089l0.054,0.141c-0.054,1.058-0.088,2.105-0.088,3.141
	c0,0.793,0.017,1.723,0.088,2.773c1.082,0.037,1.891,0.02,2.4-0.069C175.093,50.289,175.306,50.184,175.462,50.022z M104.469,21.62
	l-0.159,1.071l-16.596,7.754c0.248,0.56,0.758,1.473,1.522,2.717c1.405,2.305,3.586,3.441,6.495,3.441
	c3.402,0,6.266-1.51,8.578-4.526c0.354,0.667,0.338,1.683-0.048,3.033c-3.228,2.808-6.37,4.212-9.439,4.212
	c-3.725,0-6.737-1.178-9.056-3.49c-2.336-2.334-3.49-5.266-3.49-8.824c0-3.475,1.088-6.354,3.276-8.634
	c2.32-2.403,5.198-3.616,8.634-3.616c3.105,0,5.634,1,7.6,2.979C102.24,18.232,103.137,19.534,104.469,21.62z M99.942,23.285
	c-0.279-1.422-0.807-2.736-1.575-3.945c-1.159-1.846-2.948-2.773-5.388-2.773c-2.176,0-3.754,0.979-4.735,2.927
	c-0.843,1.743-1.28,4.04-1.318,6.879c0,0.966,0.084,1.808,0.262,2.565L99.942,23.285z M128.209,21.62l-0.173,1.071l-16.582,7.754
	c0.246,0.56,0.751,1.473,1.528,2.717c1.399,2.305,3.562,3.441,6.472,3.441c3.402,0,6.28-1.51,8.6-4.526
	c0.346,0.667,0.33,1.683-0.053,3.033c-3.248,2.808-6.387,4.212-9.442,4.212c-3.718,0-6.755-1.178-9.075-3.49
	c-2.313-2.334-3.474-5.266-3.474-8.824c0-3.475,1.092-6.354,3.265-8.634c2.318-2.403,5.214-3.616,8.651-3.616
	c3.092,0,5.616,1,7.598,2.979C125.983,18.232,126.878,19.534,128.209,21.62z M123.668,23.285c-0.281-1.422-0.809-2.736-1.577-3.945
	c-1.16-1.846-2.951-2.773-5.372-2.773c-2.173,0-3.769,0.979-4.753,2.927c-0.842,1.743-1.28,4.04-1.318,6.879
	c0,0.966,0.091,1.808,0.266,2.565L123.668,23.285z M53.676,47.129l-1.211,1.862l1.667,1.846H41.32v-2.599h-2.016v-1.105h14.371
	V47.129z M14.265,48.975h26.392v3.667H14.265V48.975z M1.175,47.129h14.356v1.091h-2.003v2.614H0.705l1.668-1.863L1.175,47.129z
	 M14.217,7.67c0-0.283,0.312-0.492,0.716-0.492c0.387,0,0.703,0.209,0.703,0.492c0,0.281-0.315,0.512-0.701,0.512l-0.176-0.018
	c-0.541,0.612-0.596,1.383-0.596,1.383v1.102H7.497c0,0,0.017-0.783,0-1.066c-0.04-0.33-0.457-1.089-0.723-1.4H6.688
	c-0.407,0-0.721-0.23-0.721-0.512c0-0.283,0.313-0.492,0.721-0.492c0.386,0,0.699,0.209,0.699,0.492L7.374,7.756
	c1.646,1.739,2.946,1.948,3.119-0.068h0.652c0.035,1.933,1.035,1.914,3.104,0.123C14.233,7.776,14.217,7.725,14.217,7.67z
	 M10.164,6.988c0-0.282,0.313-0.51,0.696-0.51c0.406,0,0.721,0.228,0.721,0.51c0,0.277-0.314,0.486-0.721,0.486
	C10.479,7.475,10.164,7.266,10.164,6.988z M7.514,11.512c0,0.055-0.057,0.617,0.37,0.795c0.962,0.383,2.75-0.092,3.297,2.438
	c0.035,0.086,0.158,0.121,0.229-0.021c-0.07-1.472,0.785-2.19,2.157-2.544c0.385-0.12,0.753-0.212,0.838-0.438
	c0.07-0.243-0.117-1.105,0.687-1.105c0.104,0,0.367,0.071,0.388,0.335c0.053,0.456-0.317,0.575-0.197,0.736
	c0.145,0.176,0.039,0.35,0.022,0.366c-0.123,0.161-0.193,0.091-0.67,0.3c-0.525,0.231-0.785,0.543-0.857,0.738
	c-0.055,0.174-0.04,0.141,0,0.371c0.016,0.259,0.527,0.383,0.399,0.413c-0.139,0.025-0.418,0.055-0.488,0.144
	c-0.072,0.109-0.332,0.438-0.702,0.477c-0.37,0.049-0.37-0.021-0.63,0.115c-0.717,0.338-0.859,0.863-0.915,1.09
	c-0.031,0.232-0.07,0.283-0.17,0.215c-0.09-0.07-0.022-0.195-0.198-0.439c-0.192-0.248-0.352-0.7-0.894-0.721
	c-0.352-0.018-1.053,0.068-1.227-0.175c-0.318-0.452-0.598-0.384-0.619-0.509c0-0.07,0.323-0.104,0.285-0.402
	c-0.034-0.318-0.176-0.51-0.703-0.756c-0.527-0.245-0.984-0.245-1.068-0.369c-0.072-0.125-0.072-0.158-0.039-0.299
	c0.057-0.243,0.023-0.137-0.176-0.315c-0.189-0.191-0.101-0.966,0.386-0.931C7.374,11.039,7.514,11.357,7.514,11.512z M9.021,13.987
	c0.038,0.28,0.28,0.478,0.547,0.439c0.26-0.038,0.455-0.278,0.416-0.562c-0.031-0.265-0.258-0.456-0.543-0.422
	C9.179,13.482,8.986,13.724,9.021,13.987z M12.179,13.81c0.035,0.282,0.283,0.476,0.547,0.438c0.263-0.031,0.457-0.281,0.421-0.541
	c-0.035-0.283-0.265-0.477-0.543-0.438C12.337,13.299,12.144,13.553,12.179,13.81z M15.093,25.003l-0.278,1.092
	c-0.124-0.278-0.458-0.177-0.688-0.037l0.42-1.264C14.794,24.517,15.021,24.587,15.093,25.003z M13.792,29.006
	c-0.383,1.102-1.544,2.354-2.576,3.121c-1,0.652-0.175-0.088-0.158-0.139c1.349-1.438,1.753-2.068,2.298-3.35
	C13.585,28.411,14.006,28.639,13.792,29.006z M15.355,21.182v1.141c-0.192-0.213-0.384-0.213-0.579,0v-1.141
	C14.935,20.829,15.183,20.799,15.355,21.182z M14.338,17.918c0.509,0.439,0.579,0.805,0.648,1.227
	c-0.033-0.049-0.455-0.473-0.648-0.035c-0.104-0.388-0.244-0.705-0.527-0.948C13.706,18.145,13.651,17.498,14.338,17.918z
	 M13.183,21.166l0.049,1.137c-0.189-0.189-0.386-0.189-0.558,0.036l-0.055-1.123C12.759,20.85,12.988,20.799,13.183,21.166z
	 M11.796,18.06c0.524,0.403,0.735,0.643,0.893,1.067c-0.037-0.05-0.79-0.65-0.856,0.055c-0.122-0.387-0.265-0.637-0.548-0.842
	C11.16,18.319,11.091,17.689,11.796,18.06z M39.325,7.67c0-0.283,0.316-0.509,0.717-0.509c0.389,0,0.706,0.226,0.706,0.509
	c0,0.055,0,0.086-0.021,0.141c2.052,1.771,3.056,1.808,3.105-0.123h0.632c0.177,2,1.472,1.791,3.124,0.068L47.566,7.67
	c0-0.283,0.336-0.509,0.724-0.509c0.384,0,0.696,0.226,0.696,0.509c0,0.281-0.313,0.512-0.696,0.512l-0.107-0.018
	c-0.262,0.314-0.687,1.064-0.701,1.418c-0.034,0.283,0,1.066,0,1.066h-6.667V9.551c0,0-0.052-0.773-0.614-1.385l-0.158,0.016
	C39.64,8.182,39.325,7.951,39.325,7.67z M43.392,6.969c0-0.263,0.318-0.49,0.702-0.49c0.386,0,0.722,0.228,0.722,0.49
	c0,0.277-0.336,0.506-0.722,0.506C43.71,7.475,43.392,7.246,43.392,6.969z M47.466,11.498c-0.019-0.141,0.139-0.459,0.473-0.492
	c0.492-0.018,0.596,0.756,0.402,0.931c-0.193,0.192-0.247,0.072-0.193,0.315c0.035,0.141,0.035,0.176-0.036,0.314
	c-0.069,0.123-0.545,0.123-1.066,0.367c-0.527,0.229-0.671,0.438-0.702,0.736c-0.038,0.321,0.296,0.338,0.277,0.424
	c0,0.103-0.298,0.055-0.613,0.493c-0.174,0.243-0.877,0.175-1.23,0.188c-0.541,0.021-0.699,0.46-0.875,0.721
	c-0.192,0.244-0.107,0.369-0.214,0.439c-0.084,0.052-0.12,0.018-0.175-0.212c-0.051-0.228-0.19-0.753-0.894-1.106
	c-0.259-0.123-0.283-0.071-0.65-0.102c-0.368-0.056-0.615-0.371-0.7-0.477c-0.073-0.106-0.336-0.118-0.475-0.158
	c-0.144-0.019,0.367-0.14,0.401-0.419c0.018-0.231,0.054-0.177-0.015-0.371c-0.072-0.188-0.316-0.486-0.844-0.718
	c-0.491-0.209-0.543-0.139-0.686-0.3c-0.015-0.036-0.123-0.19,0.018-0.387c0.141-0.159-0.229-0.26-0.189-0.716
	c0.03-0.284,0.279-0.335,0.402-0.335c0.789-0.016,0.596,0.862,0.685,1.105c0.067,0.227,0.437,0.298,0.823,0.438
	c1.369,0.354,2.23,1.051,2.176,2.544c0.072,0.12,0.175,0.089,0.211,0c0.563-2.522,2.354-2.051,3.317-2.438
	C47.519,12.129,47.447,11.566,47.466,11.498z M42.602,13.81c0.034-0.257-0.151-0.511-0.419-0.541
	c-0.261-0.038-0.512,0.155-0.543,0.419c-0.036,0.277,0.158,0.529,0.423,0.547C42.324,14.268,42.567,14.077,42.602,13.81z
	 M45.766,13.987c0.032-0.277-0.159-0.525-0.423-0.548c-0.268-0.03-0.51,0.16-0.546,0.423c-0.034,0.266,0.161,0.513,0.422,0.543
	C45.483,14.444,45.727,14.248,45.766,13.987z M39.868,24.989c0.068-0.425,0.313-0.476,0.538-0.208l0.44,1.261
	c-0.228-0.122-0.56-0.248-0.7,0.035L39.868,24.989z M41.165,28.988c-0.191-0.37,0.229-0.577,0.459-0.37
	c0.523,1.302,0.926,1.915,2.277,3.354c0.019,0.049,0.842,0.807-0.161,0.139C42.708,31.359,41.554,30.107,41.165,28.988z
	 M39.623,21.166c0.158-0.367,0.401-0.337,0.558,0.016v1.123c-0.171-0.209-0.365-0.209-0.558,0V21.166z M40.619,17.918
	c0.687-0.42,0.652,0.209,0.527,0.248c-0.265,0.227-0.398,0.54-0.509,0.947c-0.208-0.441-0.613-0.018-0.649,0.014
	C40.062,18.723,40.13,18.34,40.619,17.918z M41.779,21.166c0.192-0.367,0.439-0.316,0.585,0.033l-0.072,1.126
	c-0.178-0.212-0.353-0.229-0.564-0.021L41.779,21.166z M43.183,18.06c0.699-0.392,0.614,0.246,0.51,0.26
	c-0.279,0.226-0.421,0.476-0.546,0.862c-0.087-0.705-0.824-0.109-0.854-0.072C42.429,18.702,42.661,18.463,43.183,18.06z
	 M35.92,0.041c1.948,0.329,2.137,0.682,2.244,0.84c0.122,0.39,0.071,0.808,0,1.599c0,0.261-0.474,0.683-0.474,0.647
	c-0.09-1.174-0.232-0.822-0.651-1.191C36.464,1.332,36.024,0.549,35.92,0.041z M50.73,2.391c0.581,0.26,0.333,1.125,0.245,1.227
	c-0.457,0.895-1.319,1.475-2.898,1.529c0.478-0.229,1.18-0.369,1.443-1.546C49.694,2.65,50.024,2.178,50.73,2.391z M18.864,0
	c-0.107,0.511-0.546,1.3-1.103,1.898c-0.438,0.369-0.583,0.016-0.668,1.177c0,0.051-0.476-0.37-0.476-0.634
	c-0.07-0.787-0.104-1.209,0-1.592C16.724,0.688,16.916,0.34,18.864,0z M4.07,2.353C4.776,2.144,5.087,2.62,5.267,3.564
	c0.278,1.177,0.984,1.313,1.439,1.545c-1.56-0.07-2.439-0.632-2.878-1.527C3.738,3.459,3.476,2.62,4.07,2.353z M36.692,2.127
	c0.314,0.154,0.472,0.476,0.582,0.999c0.066,0.261,0.438,0.401,1.223,0.331c-0.154,0.193-0.328,0.316-0.399,0.457
	c-0.213,0.668-0.353,1.421-0.456,2.28c-0.11,0.018-0.229-0.806-0.229-0.806c-0.352,0.296-0.805,0.563-1.299,0.806l-0.369,0.141
	c-0.631,0.583-1.191,1.634-2.035,2.633c-0.475,0.388-1.039,0.401-1.581,0.388C32.01,9.391,31.218,9.18,31.218,9.18
	c0.017,0.018,1.052-0.421,1.052-0.421c0.262-0.159,0.665-0.369,0.966-0.825c0.296-0.547,0.491-1.314,0.559-2.352
	c0,0-0.106-1.178,0.582-1.843c0.071-0.122,0.159-0.229,0.246-0.421c0.104,0.175,0.104,0.246,0.157,0.366
	c0.228,0.28,0.368,0.404,0.527,0.739c0.016,0.052,0.084,0.069,0.144,0.125c-0.039-0.422-0.017-0.775,0.101-1.092
	C35.76,2.9,36.374,2.336,36.692,2.127z M47.767,2.62c0.681-0.125,1.207,0.048,1.505,0.506c-0.015,0.315,0.036,1.949-1.984,1.702
	c-0.329-0.351-0.77-0.616-1.033-0.525c-0.16,0.19,0,0.402,0.296,0.666c0.195,0.246,0.18,0.438,0.18,0.617
	c-1.402,0.206-2.563-0.705-2.861-2.25c-0.189-0.486-0.771-0.856-1.352-1.225c1.21-0.091,2.543,0.137,2.788-0.091
	c0.438-0.438,0.651-0.522,1.069-0.63c0.176,0,0.878,0.068,1.215,0.212c0.332,0,0.684-0.089,0.981-0.229
	C48.503,1.811,48.235,2.232,47.767,2.62z M7.019,2.582c-0.473-0.387-0.718-0.825-0.806-1.25C6.51,1.477,6.864,1.545,7.2,1.545
	c0.331-0.12,1.033-0.213,1.206-0.188c0.423,0.089,0.652,0.188,1.073,0.614c0.246,0.242,1.58,0,2.808,0.104
	c-0.599,0.366-1.157,0.72-1.354,1.229C10.619,4.849,9.461,5.76,8.075,5.547C8.057,5.373,8.041,5.182,8.231,4.936
	c0.3-0.265,0.457-0.477,0.3-0.668c-0.265-0.09-0.685,0.172-1.018,0.526C5.492,5.039,5.529,3.407,5.515,3.089
	C5.812,2.635,6.338,2.459,7.019,2.582z M24.513,12.427c-0.07-0.212,0.142-0.317,0.299-0.192c0.369,0.699,0.636,1.034,1.545,1.805
	c0.018,0.038,0.035,0.154-0.104,0.089C25.55,13.71,24.781,13.043,24.513,12.427z M23.674,10.248c0.05-0.226,0.211-0.242,0.368-0.104
	l0.298,0.687c-0.157-0.071-0.387-0.144-0.476,0.018L23.674,10.248z M23.535,8.164c0.119-0.195,0.276-0.182,0.385,0.018V8.79
	c-0.126-0.12-0.246-0.12-0.385,0V8.164z M27.286,28.971c0-0.297,0.229-0.523,0.51-0.523c0.298,0,0.526,0.227,0.526,0.523
	c0,0.281-0.229,0.527-0.526,0.527C27.518,29.498,27.286,29.252,27.286,28.971z M27.108,32.396c-0.262,0.26-0.438,0.542-0.51,0.855
	l-0.014,1.055l0.177,0.649l0.07,1.667c-0.056,0.386-0.599,0.368-0.685,0.488c-0.141,0.25-0.071,0.773-0.157,1.071
	c-0.125,0.4-0.423,0.617-0.455,0.701c-0.07,0.121,0,0.547,0,0.547c0.069,0.225,0.032,3.21,0.155,3.402
	c0.107,0.35,0.175,0.686,0.212,1c-0.019,0.35-0.14,0.523-0.367,0.523c-0.179,0.037-0.283-0.086-0.319-0.332
	c0.02-0.647-0.016-1.525-0.104-2.681c-0.015-0.354-0.053-0.686-0.143-0.985l-0.649-1.125c-0.07-0.119-0.227-0.279-0.435-0.455
	l0.175-0.475c0.052-0.226,0.07-0.474,0.052-0.74c0.459-0.014,0.827-0.206,1.104-0.524c0.634-0.51,0.281-2.298-0.456-2.751
	c-0.331-0.234-0.738-0.193-1.245-0.107c-0.596,0.157-1.019,0.367-1.086,0.895c-0.055,0.438,0.05,0.594,0.367,0.577
	c0.314-0.089,0.244-0.329,0.505-0.562c0.32-0.209,0.773-0.189,1.071-0.068c0.493,0.316,0.545,1.227,0.386,1.527
	c-0.278,0.314-0.597,0.369-1.018,0.248c-0.137-0.057-0.39-0.299-0.247-0.549c0.195-0.176,0.297-0.141,0.424-0.049
	c0.173,0.141,0.37,0.141,0.491-0.037c0.12-0.192,0.018-0.401-0.214-0.559c-0.178-0.109-0.437-0.123-0.803-0.037
	c-0.438,0.212-0.616,0.633-0.581,1.02c0.07,0.475,0.283,0.895,0.665,0.928c0.056,0.178,0.056,0.334,0.017,0.492
	c-0.142,0.389-0.298,0.669-0.471,0.861c-0.197,0.105-0.438,0.105-0.74,0.016c-0.316-0.177-0.561-0.646-0.719-1.384
	c-0.122-0.495-0.331-0.827-0.65-0.997c-0.279-0.075-0.437-0.232-0.473-0.479c0-0.334,0.335-0.402,0.84-0.352
	c0.457-0.178,0.563-0.314,0.776-0.787c0.033-0.037,0.189-0.281,0.213-0.315c0.049-0.142,0.013-0.302,0-0.441l0.013-0.229
	c0.123-0.787,0.528-0.682,0.858-0.859c0.036-0.018,0.091-0.066,0.091-0.137c-0.036-1.229,0.577-1.74,1.962-1.825
	c0.49-0.843,1.018-1.127,1.914-0.827v2.146H27.108z M22.882,39.623c0.283-0.051,0.527-0.178,0.722-0.35
	c0.032,0.121,0.087,0.209,0.159,0.281c-0.072,0.896-0.089,1.823-0.055,2.823l0.125,0.187c0.032,0.356,0.032,0.425-0.055,0.566
	c-0.104,0.07-0.243,0.016-0.316-0.039c-0.195-0.209-0.245-0.35-0.297-0.578c-0.071-0.388-0.089-0.877-0.089-1.454
	c-0.053-0.053-0.123-0.193-0.144-0.371L22.882,39.623z M28.515,30.303c0.229-0.195,0.526-0.246,0.861-0.139
	c0.278,0.209,0.457,0.475,0.578,0.824c0.756-0.09,1.246,0.055,1.491,0.421c0.09,0.229,0.09,0.474,0,0.739
	c0.614,0.367,1.002,0.664,1.16,0.927c0.228,0.333,0.228,0.632-0.021,0.86c-0.05,0.162-0.05,0.264,0,0.332l0.582,0.74
	c0.316,0.383,0.266,0.734-0.122,1.034c-0.091,0.209-0.091,0.366,0.019,0.474c0.369,0.772,0.507,1.423,0.438,1.945
	c-0.14,0.334-0.368,0.354-0.72,0.091l-0.015-1.791c-0.179-0.403-0.652-0.245-0.634,0.179v2.051c0.011,0.28,0.104,0.596,0.157,0.821
	c0.068,0.157,0.035,2.176,0.035,2.176c-0.035,0.372-0.107,0.652-0.211,0.845L31.64,43.43c-0.072,0.015-0.121,0-0.141-0.09
	c0.192-1.296,0.204-2.439,0.051-3.42l-0.84-1.897c-0.087-0.755-0.125-1.382-0.056-1.912c0.178-0.368,0.353-0.616,0.511-0.753
	c0.143-0.404,0-0.565-0.402-0.49c-0.527,0.4-0.753,1.064-0.701,1.996c0.155,0.701,0.214,1.178,0.155,1.391
	c-0.102,0.086-0.171,0.207-0.189,0.366c-0.108,0.562-0.073,1.09-0.018,1.634l-0.105,1.773c-0.126,0.26-0.281,0.438-0.457,0.541
	c0.019-2.102-0.052-3.383-0.192-4.016c-0.157-0.614-0.298-1.107,0.018-1.512c0.126-0.438,0.055-0.809,0.055-0.809l-0.193-0.734
	c-0.092-0.486-0.053-1.018,0.121-1.613c0.035-0.684-0.213-1.157-0.736-1.455v-2.127H28.515z M50.324,23.232
	c0.036,0.281,0.05,0.545,0.05,0.809l0.723,1.069c-0.02-0.121,0-0.563-0.299-1.019C50.656,23.811,50.503,23.514,50.324,23.232z
	 M50.292,25.725c-0.037,0.299-0.089,0.597-0.159,0.877l1.418,1.473l-0.052-0.682C51.114,26.883,50.767,26.393,50.292,25.725z
	 M49.815,27.811l-0.246,0.721c0.755,0.738,1.56,1.419,2.423,2.071l-0.056-0.474C50.956,29.215,50.306,28.447,49.815,27.811z
	 M49.2,29.443l-0.315,0.721c0.721,0.807,1.895,1.754,3.506,2.81c-0.015-0.093,0-0.264-0.032-0.353
	C50.992,31.392,49.937,30.343,49.2,29.443z M48.535,30.898l-0.582,1.179c1.304,1.578,2.989,3.19,5.057,4.845
	c-0.422-0.791-0.634-1.546-0.735-2.284C51.518,34.184,50.292,32.919,48.535,30.898z M44.551,21.252
	c0.894-1.316,2.179-2.282,3.6-2.197c0.055-0.209-0.057-0.4-0.335-0.596c-0.315-0.14-0.509-0.085-0.963,0.141
	c-0.702,0.018-1.177-0.123-1.439-0.438c-0.036-0.071,0-0.123,0.084-0.14l1.193-0.457v-0.177c-0.719,0.191-1.475,0.212-2.262,0.089
	c-0.404-0.068-0.649-0.366-0.72-0.91c-0.089-0.192,0.07-0.213,0.192-0.106c0.189,0.298,0.49,0.455,0.893,0.455
	c1.071-0.017,1.706-0.071,1.896-0.175c0.424-0.141,0.668-0.387,0.721-0.756c0.036-0.105-0.016-0.124-0.141-0.086
	c-0.543,0.226-0.703,0.155-1.053,0.141c-0.211,0-0.195-0.124,0.051-0.249c0.949-0.524,1.368-1.175,1.261-1.929
	c0.058-0.143,0.125-0.195,0.194-0.143c0.615,1.121,0.525,2.423-0.174,3.367c-0.05,0.059-0.068,0.113-0.068,0.182l0.107,0.141
	c1.753,2.144,2.93,4.635,3.735,7.439c0.562,2.613,1.177,9.42,2.211,11.283c0.385,1.089,0.859,2.051,1.421,2.948
	c-0.964,0.12-2.018-0.159-2.652-0.386l0.734,5.734l-4.015-1.227l-1.021-2.79c-0.053-0.139-0.143-0.209-0.314-0.089
	c-0.35,0.212-1.402,0.071-1.473,0.071c-0.281-0.055-0.369-0.036-0.408,0.106c-0.032,0.246-0.046,0.771-0.014,1.56
	c0.039,0.283,0.227,0.509,0.545,0.687l0.545,0.209c0.264,0.072,0.455,0.212,0.561,0.407c0.085,0.277,0.279,0.541,0.58,0.769
	c0.178,0.053,0.296,0.07,0.263,0.389c-0.038,0.241-0.226,0.384-0.402,0.367c-0.298-0.035-0.526-0.162-0.7-0.388
	c-0.319-0.438-0.723-0.771-1.213-1c-0.49-0.264-1.242-0.277-2.16,0c-1.067,0.386-1.961,0.88-2.522,1.425
	c-0.104,0.064-0.178,0.051-0.231-0.021l0.263-1.353c0.073-0.205,0.196-0.366,0.371-0.416l2.95-0.789l0.051-2.127
	c-0.634-0.438-1.089-0.998-1.387-1.666c-0.3-1.154-1.668-1.738-1.668-1.738c-0.526-0.311-0.791-0.541-1.139-0.561l-0.055-0.048
	c-0.264-0.021-0.736-0.021-1.4,0.018c-0.282,0.05-0.494,0.243-0.666,0.579l-0.195,0.54c-0.068,0.268-0.142,0.334-0.385,0.565
	c-0.283,0.105-0.546,0.314-0.756,0.596l-0.071,0.137v0.109c-0.403,1.281-3.856,6.633-9.545,8.845
	c-4.422-1.637-8.612-6.513-9.349-8.772v-0.09c-0.07-0.051-0.125-0.143-0.156-0.209c-0.212-0.308-0.457-0.5-0.758-0.605
	c-0.247-0.227-0.316-0.298-0.387-0.558l-0.192-0.562c-0.158-0.34-0.387-0.511-0.667-0.566c-0.647-0.033-1.125-0.051-1.402-0.033
	l-0.036,0.052c-0.353,0.037-0.613,0.265-1.158,0.562c0,0-1.367,0.578-1.666,1.756c-0.296,0.664-0.756,1.209-1.368,1.647l0.051,2.14
	l2.932,0.775c0.172,0.068,0.313,0.207,0.383,0.438l0.244,1.351c-0.047,0.066-0.117,0.066-0.225,0
	c-0.543-0.546-1.457-1.019-2.527-1.403c-0.912-0.301-1.666-0.266-2.14-0.02c-0.511,0.228-0.913,0.558-1.228,0.997
	c-0.161,0.245-0.402,0.369-0.702,0.386c-0.172,0.039-0.368-0.103-0.403-0.348c-0.033-0.334,0.105-0.334,0.279-0.403
	c0.283-0.214,0.476-0.475,0.581-0.769c0.084-0.182,0.28-0.336,0.544-0.408l0.543-0.209c0.316-0.156,0.512-0.387,0.561-0.664
	c0.023-0.808,0.023-1.318-0.033-1.564c-0.016-0.158-0.104-0.178-0.405-0.121c-0.049,0.015-1.122,0.156-1.471-0.057
	c-0.159-0.119-0.263-0.049-0.317,0.092l-1.019,2.773l-4.018,1.227l0.737-5.722C2.021,38.918,0.986,39.199,0,39.077
	c0.566-0.875,1.058-1.86,1.444-2.929c1.035-1.859,1.646-8.67,2.189-11.301c0.828-2.807,2.004-5.283,3.757-7.439l0.085-0.123
	c0.023-0.068-0.019-0.141-0.067-0.191c-0.702-0.945-0.771-2.246-0.179-3.352c0.071-0.072,0.145-0.019,0.213,0.139
	c-0.124,0.758,0.298,1.387,1.263,1.914c0.229,0.124,0.247,0.247,0.035,0.247c-0.35,0.035-0.509,0.103-1.055-0.127
	c-0.118-0.05-0.172-0.017-0.14,0.089c0.069,0.35,0.3,0.613,0.721,0.757c0.195,0.087,0.824,0.157,1.897,0.175
	c0.399,0,0.696-0.162,0.894-0.475c0.123-0.107,0.281-0.069,0.19,0.122c-0.067,0.546-0.315,0.844-0.719,0.897
	c-0.789,0.141-1.543,0.103-2.263-0.09v0.176l1.211,0.455c0.09,0.038,0.104,0.089,0.09,0.157c-0.283,0.3-0.756,0.462-1.441,0.441
	c-0.472-0.246-0.669-0.301-0.982-0.157c-0.297,0.209-0.384,0.438-0.297,0.664c1.367-0.086,2.611,0.81,3.506,2.089
	c0.755,0.599,1.091,2.421,0.843,3.896c-0.175,3.28-2.7,7.089-7.597,11.439l-0.947,6.77l0.633-0.241l0.667-4.826l0.577-0.231
	L3.81,42.936l1.631-0.486l2.316-6.004l0.492-0.65l0.615-0.328c0.279-0.091,0.385,0.103,0.279,0.314
	c-0.421,0.4-0.682,0.771-0.805,1.086l-0.685,1.771c-0.179,0.421-0.141,0.757,0.069,0.998c0.16,0.302,1.174,0.284,2.088-0.064
	c1.107-0.74,1.209-1.246,1.489-1.984c0.266-0.666,0.668-1.129,1.209-1.368c0.986-0.842,0.846-1.646,0.846-1.808l0.106-2.335
	c0.034-0.35,0.363-1.386,1.631-3.771c1.298-3.525,1.647-6.371,1.018-8.527c-0.174-1.56-0.894-2.405-2.176-2.542l-1.737,0.101
	c-0.33-0.156-0.558-0.368-0.688-0.646c-0.151-0.265-0.101-0.372,0.161-0.317c0.161,0.243,0.387,0.387,0.685,0.399l1.157-0.082
	c0.353-0.04,0.635-0.176,0.795-0.459c0.4-0.559,0.189-1.35,0.242-2.227c0.056-0.439,0.437-0.525,0.615-0.125
	c0.107,0.247,0.09,0.456-0.071,0.613c-0.02,0.916-0.052,1.527-0.279,1.914c-0.213,0.264-0.161,0.422,0.157,0.455
	c0.647,0.404,1.174,0.981,1.542,1.754c1.403,3.633,0.699,7.354-1.968,12.635c-0.314,0.859-0.438,1.895-0.383,3.088l0.013,0.72h2.042
	l0.823-2.948c0.073-0.193,0.214-0.315,0.438-0.37l0.598-0.106V20.757h6.352c-0.07-0.052,0.213-0.753,0.385-0.839
	c0.175-0.106,1.913-0.425,1.913-0.425v-1.017c0-0.137-0.423-0.399-0.597-0.575c-0.174-0.179-0.367-0.563-0.545-0.863
	c-0.193-0.314-0.403-0.735-0.491-0.859c-0.085-0.119-0.563-0.982-0.703-1.207c-0.142-0.248-0.174-0.687-0.244-1.019
	c-0.07-0.314-0.597-1.157-0.841-1.544c-0.353,0.315-0.509,0.368-1.036,0.596c-0.491,0.126-0.964,0.211-1.458,0.196
	c-0.875-0.09-1.473-0.439-1.771-1.037c-0.194-0.546-0.125-1.125,0.19-1.755c0.053-0.071,0.091-0.071,0.143,0l1.141,1.559
	c0.51,0.51,0.998,0.705,1.615,0.637c0.575-0.144,0.699-0.25,1.017-0.476l-0.175-0.442c-0.157,0.25-0.353,0.404-0.598,0.493
	c-0.23,0.106-0.455,0.123-0.668,0.051c-0.283-0.087-0.492-0.193-0.578-0.314c0.123-0.755,1.142-1.296,1.28-1.365
	c0,0,0.088-0.056,0.161-0.072l-0.091-0.333c-1.034-0.034-4.717,0.069-6.51-3.14c-0.84-1.51-1.543-3.28-2.528-3.929
	c-0.719-0.391-1.279-0.353-1.983,0.05c0.389-0.44,0.722-0.718,1.144-0.822c0.35-0.057,0.825,0,1.225,0
	c1.092,0.246,2.511,1.697,2.441,1.646c0.155,0.261,0.349,1.158,0.508,2.104c0.107,0.406,0.634,0.877,0.841,1.21
	c-0.105-0.458-0.136-0.896-0.065-1.263c0.4,0.318,0.647,0.366,1.226,0.597c0.734,0.526,1.103,1.383,1.668,2.156
	c0.422,0.473,1.228,0.791,1.896,0.859l-0.018-0.089l-0.038-0.157c-0.365-0.035-0.861-0.104-1.247-0.436
	c-0.792-1.02-1.366-2.071-1.998-2.633l-0.368-0.14c-0.496-0.247-0.933-0.508-1.299-0.808c0,0-0.12,0.808-0.229,0.808
	c-0.086-0.856-0.243-1.612-0.438-2.28c-0.086-0.156-0.243-0.264-0.418-0.456c0.788,0.051,1.156-0.069,1.245-0.336
	c0.091-0.524,0.248-0.841,0.577-1.017c0.321,0.232,0.915,0.791,1.144,1.335c0.103,0.332,0.142,0.685,0.103,1.104
	c0.039-0.072,0.107-0.085,0.143-0.121c0.157-0.333,0.299-0.455,0.523-0.736c0.039-0.123,0.039-0.209,0.145-0.367
	c0.105,0.188,0.177,0.299,0.265,0.402c0.685,0.687,0.577,1.857,0.557,1.857c0.09,1.02,0.265,1.811,0.563,2.354
	c0.298,0.438,0.422,0.509,0.702,0.614c0.089-1.352,0.893-2.455,1.264-2.542c0.07-0.016,0.156-0.108,0-0.142
	c-0.283-0.106-0.511-0.332-0.546-0.788c-0.016-0.318-0.141-1.931-0.088-2.105c0.052-0.179,0.336-0.034,0.351,0.055
	c0.035,0.087,0.089,1.243,0.141,1.732c0.07,0.476,0.513,0.791,0.67,0.862c0.155,0.069,1.014,0.018,1.242,0.018
	c0.209,0,0.049-0.055,0.178-0.109c0.14-0.068,0.227-0.068,0.298-0.014c0.087,0.034,0.034,0.26-0.033,0.363
	c-0.089,0.126-0.404,0.283-0.671,0.336c-0.259,0.053-0.507-0.053-0.697-0.053c-0.438,0.035-0.637,0.247-0.793,0.404
	c-0.368,0.387-0.562,0.856-0.754,1.686c-0.178,0.822,0.069,1.68,0.227,2.088c0.157,0.416,0.477,1.421,0.752,1.979
	c0.284,0.548,0.668,1.017,0.846,1.369c0.189,0.366,0.211,0.384,0.299,0.948c0.104,0.58,1.052,2.298,1.491,2.928
	c0.439,0.635,0.875,0.701,1.438,0.774c0.562,0.087,0.805-0.161,0.876-0.195c0.071-0.048-0.754-1.562-0.911-1.753
	c-0.138-0.195-0.263-0.213-0.263-0.213s-0.069-0.174,0-0.229c0.052-0.066,0.548,0.056,0.807,0.194
	c0.25,0.121,1.441,3.031,1.514,3.123c0.067,0.107,0.994,0.347,1.05,0.332c0.07-0.016-0.805-2.299-0.79-2.386
	c0.021-0.107,0.385,0,0.438,0c0.057,0,0.807,2.441,0.807,2.441l0.353,0.103c-0.141-0.488-0.526-3.176-0.563-3.207
	c-2.613-1.758-3.544-3.054-4.172-3.911c-0.666-0.914-0.79-1.862-0.807-2.828c-0.02-0.986,0.315-1.315,0.473-1.511l0.088-0.084
	c0.438-0.474,1.103-0.826,1.84-0.878c0-0.087,0.213-0.071,0.368-0.071c0.18,0,0.229-0.031,0.247-0.175
	c0.018-0.124-0.124-0.209-0.297-0.318c-0.178-0.12-0.32,0-0.633,0.068c-0.316,0.096-0.737-0.103-0.862-0.157
	c-0.105-0.051-0.087-0.104,0.054-0.14c0.385-0.087,0.666-0.104,0.843-0.415c-0.704,0.104-1.809,0.116-1.948,0.03
	c-0.104-0.068-0.332-0.315-0.402-0.438c-0.09-0.102,0.029-0.154,0.121-0.154c0.086,0,0.191,0.227,0.402,0.277
	c0.193,0.052,1.56-0.033,1.827-0.068c0.276-0.035,0.437-0.298,0.527-0.389c0.083-0.086,0-0.159-0.109-0.174
	c-0.12-0.019-0.509,0.088-0.668,0.088c-0.139,0-0.155,0-0.155-0.106c0-0.122,0.563-0.333,0.771-0.49
	c0.193-0.16,0.277-0.53,0.277-0.53S29.022,4,29.107,4.023c0.09,0.016,0.142,0.244,0.248,0.543c0.106,0.314-0.158,0.98-0.423,1.296
	c-0.051,0.038-0.139,0.093-0.264,0.123c0.11,0.124,0.936,1.141,1.354,1.791c0.177,0.261,0.366,0.596,0.56,0.962l0.176,0.178
	c0.263,0.418,0.72,0.72,1.405,0.686c0.964,0.086,1.733-0.318,2.174-0.812c0.565-0.753,0.948-1.629,1.666-2.153
	c0.584-0.213,0.829-0.281,1.228-0.579c0.069,0.351,0.037,0.805-0.049,1.246c0.209-0.332,0.717-0.791,0.826-1.194
	c0.155-0.948,0.346-1.859,0.508-2.123c-0.069,0.053,1.368-1.404,2.438-1.647c0.404,0,0.879-0.034,1.229,0.018
	c0.419,0.106,0.757,0.368,1.143,0.806c-0.704-0.402-1.267-0.438-1.982-0.035c-0.965,0.63-1.684,2.406-2.524,3.91
	c-1.812,3.248-5.618,3.178-6.774,3.127l-0.791-0.021l0.053,0.159c0.086-0.035,0.351-0.09,0.964,0.176
	c0.224,0.107,1.14,0.612,1.281,1.352c-0.106,0.137-0.315,0.243-0.579,0.332c-0.212,0.068-0.546,0.035-0.789-0.071
	c-0.227-0.068-0.438-0.208-0.615-0.456l0.089,0.491c0.3,0.243,0.418,0.386,1.015,0.507c0.601,0.07,1.088-0.121,1.599-0.628
	l1.142-1.564c0.051-0.068,0.104-0.068,0.139,0c0.322,0.63,0.389,1.212,0.195,1.757c-0.298,0.597-0.895,0.944-1.773,1.053
	c-0.49,0-0.95-0.07-1.459-0.209c-0.401-0.18-0.647-0.283-0.769-0.438c0.121,0.786,0.284,1.614,0.421,2.228
	c0.317,1.438,1.404,2.753,1.473,3.088c0.072,0.33-1.578-0.208-1.682-0.157c-0.107,0.048,0.402,2.542,0.316,2.56
	c-0.107,0.016-2.511-0.56-2.758-0.738c-0.26-0.157-0.421-0.91-0.526-0.999c-0.104-0.069-0.19,0.075-0.332,0.176
	c-0.142,0.124,0.017,0.793,0.157,0.916c0.141,0.137,0.701,0.243,0.841,0.329c0.144,0.107,0.232,0.353,0.319,0.404l0.418,0.332
	l-0.225,0.017h6.808v10.878l0.509,0.09c0.23,0.071,0.367,0.191,0.439,0.371l0.826,2.964l2.049-0.02l0.017-0.703
	c0.054-1.19-0.087-2.226-0.402-3.103c-2.667-5.283-3.351-8.984-1.962-12.635c0.385-0.771,0.893-1.35,1.56-1.736
	c0.3-0.051,0.371-0.212,0.141-0.472c-0.21-0.37-0.264-1-0.279-1.897c-0.157-0.174-0.177-0.387-0.07-0.629
	c0.171-0.4,0.561-0.297,0.632,0.143c0.033,0.877-0.178,1.666,0.228,2.225c0.177,0.266,0.438,0.423,0.809,0.459l1.14,0.069
	c0.298-0.017,0.524-0.14,0.684-0.385c0.264-0.07,0.318,0.032,0.155,0.315c-0.101,0.262-0.328,0.49-0.681,0.631l-1.742-0.105
	c-1.262,0.154-2,1-2.174,2.544c-0.633,2.175-0.284,5.021,1.018,8.546c1.278,2.383,1.615,3.4,1.633,3.771l0.103,2.317
	c0.021,0.175-0.139,0.981,0.847,1.822c0.54,0.229,0.941,0.685,1.206,1.35c0.298,0.76,0.389,1.266,1.514,2.006
	c0.894,0.349,1.91,0.349,2.065,0.051c0.23-0.229,0.246-0.563,0.09-0.986l-0.687-1.773c-0.138-0.33-0.403-0.701-0.827-1.103
	c-0.085-0.194,0-0.387,0.282-0.298l0.616,0.329l0.509,0.652l2.302,6.001l1.629,0.49l-0.702-4.914l0.581,0.229l0.664,4.828
	l0.613,0.243l-0.947-6.77c-4.896-4.353-7.42-8.159-7.599-11.441C43.515,23.671,43.833,21.9,44.551,21.252z M29.692,14.617
	c1.401,1.281,2.733,2.123,2.492,1.877c-0.041-0.053-0.354-0.859-0.422-0.998c-0.032-0.086-1.157-0.963-1.824-1.529L29.692,14.617z
	 M30.146,13.354c0.65,0.403,1.558,1.051,1.669,1.051c0.051-0.017,0-0.085-0.038-0.171c-0.019-0.072-0.926-0.795-1.506-1.248
	L30.146,13.354z M30.412,12.427c0.469,0.314,1.178,0.842,1.228,0.858c0.088,0.035-0.024-0.157-0.036-0.244
	c0-0.07-0.685-0.704-1.09-1.091L30.412,12.427z M30.605,11.248l0.858,0.736c0,0,0-0.139-0.07-0.314
	c-0.055-0.143-0.49-0.686-0.752-0.983L30.605,11.248z M30.569,9.773c0.036-0.107,0.542,0.561,0.542,0.561s0.036,0.02-0.07-0.227
	c-0.142-0.313-0.367-0.667-0.629-1C30.479,9.334,30.531,9.566,30.569,9.773z M28.045,18.723c-0.354,0.109-0.757-0.051-0.757-0.064
	c0,0-0.034,0.696-0.02,0.805c0,0.105,0.438,0.191,0.511,0.244c0.085,0.054,0.282-0.123,0.282-0.123S28.094,19.055,28.045,18.723z
	 M25.813,20.759h3.808c-0.121-0.07-0.56-0.471-0.769-0.423c-0.073,0.023,0.383,0.423,0.383,0.423s-0.65,0-0.735-0.031
	c-0.087-0.022-0.791-0.457-0.913-0.512C27.479,20.161,26.147,20.672,25.813,20.759z M24.829,20.759h0.897
	c-0.051-0.07-0.159-0.282-0.159-0.331C25.565,20.391,24.988,20.672,24.829,20.759z M36.971,32.881v4.529
	c0.284-0.281,0.493-0.611,0.671-0.983c0.243-0.491,0.243-1.261-0.055-2.174C37.392,33.744,37.202,33.291,36.971,32.881z
	 M18.077,37.48v-4.719c-0.264,0.439-0.493,0.948-0.687,1.492c-0.316,0.93-0.297,1.682-0.052,2.175
	C17.51,36.852,17.762,37.182,18.077,37.48z M26.832,29.512c-0.93-0.209-1.616,0.127-2.092,1.006
	c-1.331,0.049-2.035,0.701-2.103,1.942c-0.598,0.159-0.914,0.545-0.965,1.212c-0.631,0.054-1,0.527-1.125,1.422
	c-1.019,0-1.104,1.561,0.089,1.735c0.259,0.248,0.559,0.809,0.772,1.441c0.279,0.575,0.609,1.12,0.98,1.331
	c-0.034,0.734,0.051,1.244,0.193,1.633l0.122,1.598c0.176,0.4,0.456,0.842,0.898,0.857c0.697-0.05,0.822-0.546,0.594-1.488
	l0.074-1.896c0.119,0.103,0.212,0.314,0.26,0.596c0.108,0.754,0.108,1.877,0.209,3.353c0.267,0.681,0.438,0.596,0.825,0.702
	c0.455-0.036,0.704-0.266,0.805-0.827c0-0.457-0.069-0.843-0.191-1.177c-0.122-0.752-0.158-1.633-0.07-2.581
	c0.017-0.684,0.053-1.138,0.212-1.384c0.298-0.336,0.368-0.596,0.456-1.335c0.069-0.175,0.56-0.141,0.738-0.49
	c0.104-0.544,0.088-1.299-0.035-2.354c-0.193-0.488-0.245-0.947-0.159-1.381c0.034-0.337,0.214-0.494,0.565-0.477
	c0.299-0.018,0.506,0.178,0.597,0.578c0.013,0.404,0,0.759-0.071,1.106c-0.072,0.404-0.02,1.105,0.277,1.721
	c0.035,0.143-0.034,0.33,0.021,0.473c-0.086,0.296-0.265,0.457-0.317,1.087c0,0.353,0.192,0.948,0.192,0.948
	c0.21,0.457,0.315,1.582,0.315,3.4c-0.123,0.195-0.177,0.459,0.021,0.739c0.455,0.247,0.664,0.212,1.103-0.052
	c0.19-0.229,0.332-0.473,0.438-0.752c0.067-1.179,0.067-2.072-0.036-2.688c0.015-0.142,0.07-0.209,0.177-0.209
	c0.209,0.332,0.334,0.684,0.419,1.053c-0.015,1.895-0.21,2.982-0.156,3.4c0.086,0.264,0.332,0.406,0.862,0.372
	c0.384-0.175,1.052-1.228,1.052-1.228c0.141-0.789,0.155-1.701,0.032-2.723c-0.015-0.211-0.015-0.328,0.039-0.578
	c0.051-0.173,0.069-0.209,0.193-0.229c0.51,0.123,0.859-0.138,1.067-0.788c0.036-0.314,0.036-0.77-0.035-1.332
	c-0.034-0.332-0.118-0.612-0.317-0.828c0.492-0.82,0.37-1.614-0.367-2.4c0.265-0.986-0.139-1.739-1.191-2.246
	c0.033-0.981-0.529-1.459-1.703-1.438c-0.191-0.615-0.721-0.915-1.595-0.897c0.086-0.896-0.089-1.525-1-1.65
	C27.656,27.776,26.392,27.848,26.832,29.512z M23.32,27.197l-0.666-2.102l1.774-1.299h-2.194l-0.686-2.105l-0.664,2.105H18.69
	l1.768,1.299l-0.682,2.102l1.772-1.296L23.32,27.197z M29.235,27.197l-0.686-2.102l1.771-1.299h-2.175l-0.684-2.105l-0.686,2.105
	h-2.178l1.775,1.299l-0.686,2.102l1.773-1.296L29.235,27.197z M35.218,27.197l-0.683-2.102l1.771-1.299h-2.195l-0.664-2.105
	l-0.683,2.105h-2.195l1.772,1.299l-0.667,2.102l1.772-1.296L35.218,27.197z M6.425,30.921c-1.754,2.016-2.982,3.278-3.736,3.717
	c-0.107,0.755-0.315,1.493-0.718,2.303c2.051-1.669,3.733-3.265,5.033-4.843L6.425,30.921z M5.74,29.463
	c-0.722,0.895-1.771,1.946-3.142,3.158c-0.021,0.089,0,0.26-0.021,0.353c1.602-1.037,2.759-2.003,3.495-2.79L5.74,29.463z
	 M5.146,27.832c-0.493,0.629-1.122,1.383-2.125,2.313l-0.036,0.457c0.843-0.632,1.65-1.316,2.404-2.052L5.146,27.832z M4.688,25.725
	c-0.491,0.668-0.827,1.158-1.229,1.668l-0.037,0.682l1.401-1.452C4.776,26.321,4.722,26.023,4.688,25.725z M4.651,23.199
	c-0.173,0.297-0.332,0.598-0.473,0.896c-0.298,0.455-0.298,0.91-0.298,1.033l0.72-1.085C4.621,23.762,4.636,23.479,4.651,23.199z
	 M26.776,3.705c0,0.209,0.16,0.368,0.373,0.368c0.189,0,0.368-0.159,0.368-0.368s-0.179-0.369-0.368-0.369
	C26.937,3.336,26.776,3.493,26.776,3.705z M23.515,1.953c-0.019,0.104,0.021,0.19,0.107,0.26c0.07,0.092,0.243,0.14,0.471,0.229
	l0.635,0.281c0.189,0.086,0.354,0.036,0.526,0.23c0.157,0.174,0.228,0.365,0.282,0.522c0.052,0.179,0.052,0.336,0.143,0.563
	c0.07,0.211,0.034,0.3,0.139,0.348c0.121,0.051,0.191,0.04,0.262-0.048c0.07-0.071,0.107-0.281,0.144-0.438
	c0.013-0.144,0.085-0.373,0.246-0.564c0.156-0.209,0.545-0.455,0.913-0.527c0.367-0.05,0.488-0.018,0.783-0.086
	c0.321-0.088,0.479-0.12,0.527-0.281c0.039-0.16,0.053-0.349-0.174-0.421c-0.229-0.05-1.455-0.456-2.525-0.418
	c-1.049,0.034-2.087,0.243-2.195,0.227C23.604,1.825,23.515,1.953,23.515,1.953z M24.372,3.549c0,0.19,0.178,0.365,0.368,0.365
	c0.214,0,0.37-0.175,0.37-0.365c0-0.213-0.158-0.388-0.37-0.388C24.549,3.161,24.372,3.336,24.372,3.549z M21.847,1.268
	c0,0,3.209-0.404,3.93-0.418c0.721-0.022,2.088,0.243,2.649,0.35c0.581,0.104,1.686,0.033,1.755,0.086
	c0.072,0.071,0.189,0.213,0.017,0.352c-0.177,0.137-0.877,0.559-0.877,0.716c0,0.179,0.035,0.298-0.071,0.388
	c-0.121,0.068-0.227,0-0.58,0.178c-0.347,0.159-0.597,0.332-0.665,0.473c-0.07,0.125-0.104,0.089-0.087,0.264
	c0.017,0.157,0.176,0.281,0.087,0.348c-0.07,0.071-0.12,0-0.19,0.071c-0.07,0.07-0.299,0.3-0.58,0.3s-0.281-0.052-0.495,0.018
	c-0.56,0.191-0.718,0.578-0.767,0.735c-0.056,0.179-0.09,0.212-0.16,0.143c-0.068-0.05-0.035-0.122-0.16-0.333
	c-0.103-0.191-0.295-0.629-0.559-0.665c-0.264-0.056-0.734-0.071-0.914-0.195c-0.157-0.14-0.35-0.14-0.33-0.281
	c0.032-0.137,0.193-0.137,0.193-0.366c0-0.246-0.089-0.492-0.479-0.718c-0.368-0.23-0.753-0.299-0.808-0.388
	c-0.032-0.109,0-0.121,0.04-0.229c0.048-0.106,0.154-0.069-0.04-0.14c-0.189-0.053-0.737-0.18-0.854-0.299
	c-0.109-0.121-0.195-0.35-0.144-0.369C21.794,1.248,21.847,1.268,21.847,1.268z M65.871,21.287c0,4.755,0.124,9.999,0.367,15.721
	c3.265,0.141,5.44,0.212,6.495,0.212c2.874,0,5.035-0.279,6.472-0.808c1.019-0.389,1.824-1.086,2.438-2.072l0.634,0.209
	c0.034,0.459-0.125,1.246-0.476,2.373c-0.349,1.119-0.686,1.947-0.966,2.473c-1.997-0.209-7.913-0.317-17.754-0.317h-1.843
	l-0.313-0.807l0.348-7.3c0.108-2.51,0.178-5.735,0.178-9.684c0-2.629-0.263-6.967-0.263-6.967l-0.178-2.863l0.314-0.809h4.757
	l0.316,0.809l-0.141,2.791C66.257,14.248,65.871,18.956,65.871,21.287z M154.144,38.43l-0.297,0.736h-4.155l-0.374-0.736v-2.336
	c-1.759,2.194-4.051,3.279-6.908,3.279c-3.392,0-6.266-1.191-8.671-3.578c-2.388-2.383-3.579-5.277-3.579-8.684
	c0-3.369,1.191-6.245,3.599-8.652c2.398-2.382,5.296-3.576,8.683-3.576c2.964,0,5.387,0.947,7.251,2.878
	c0-4.267-0.121-3.722-0.371-10.073l0.371-0.74h4.159l0.297,0.74c-0.318,5.355-0.477,6.054-0.477,13.792
	C153.671,26.57,153.829,32.234,154.144,38.43z M149.691,23.866c-0.987-4.789-3.81-7.175-8.443-7.175
	c-1.826,0-3.335,0.807-4.508,2.436c-1.194,1.633-1.789,3.721-1.789,6.283c0,0.596,0.045,1.212,0.153,1.861
	c0.357,3.035,1.264,5.565,2.754,7.563c1.492,2.018,3.264,3.018,5.302,3.018c1.403,0,2.704-0.44,3.896-1.316
	c1.192-0.859,2.016-2.055,2.473-3.582C149.602,30.689,149.654,27.656,149.691,23.866z M175.376,31.865
	c0,2.369-0.947,4.283-2.863,5.687c-1.733,1.351-3.82,2.034-6.258,2.034c-2.444,0-4.563-0.509-6.351-1.545l-3.301-1.28
	c0-2.174,0.175-3.756,0.542-4.735c1.369,2.191,2.563,3.599,3.543,4.207c1.881,1.128,3.724,1.706,5.527,1.706
	c1.279,0,2.493-0.438,3.668-1.28c1.297-0.931,1.963-1.982,1.963-3.195c0-1.424-0.578-2.578-1.732-3.472
	c-0.825-0.664-2.299-1.243-4.439-1.756c-2.563-0.63-4.266-1.153-5.104-1.541c-1.794-0.812-2.986-2.037-3.544-3.671
	c-0.279-0.821-0.423-1.63-0.423-2.451c0-1.109,0.441-2.229,1.318-3.354c0.784-1.035,1.874-1.792,3.278-2.245
	c1.058-0.318,2.579-0.474,4.579-0.474c0.947,0,2.58,0.248,4.909,0.737c1.302,0.298,2.602,0.558,3.896,0.808
	c0.11,2.562,0.025,4.527-0.257,5.91c-1.44-2.174-2.683-3.592-3.739-4.264c-1.491-0.997-3.193-1.49-5.124-1.49
	c-1.332,0-2.312,0.177-2.948,0.526c-1.51,0.858-2.264,1.913-2.264,3.14c0,1.035,0.562,1.896,1.684,2.564
	c1.021,0.646,2.667,1.278,4.932,1.893c2.266,0.617,3.788,1.123,4.563,1.524C174.059,27.27,175.376,29.272,175.376,31.865z
	 M66.749,46.063l-0.42,0.015c-0.315-0.821-0.949-1.242-1.932-1.242c-0.65,0-1.193,0.247-1.635,0.755
	c-0.455,0.505-0.684,1.125-0.684,1.84c0,0.809,0.264,1.511,0.771,2.106c0.492,0.579,1.035,0.878,1.631,0.878
	c0.93,0,1.58-0.246,1.944-0.721l0.252,0.371c-0.28,0.331-0.55,0.577-0.808,0.701c-0.353,0.176-0.843,0.264-1.459,0.264
	c-0.894,0-1.685-0.336-2.369-1.004c-0.7-0.662-1.052-1.506-1.052-2.472c0-0.863,0.33-1.634,1.034-2.315
	c0.684-0.667,1.475-1.017,2.354-1.017c0.487,0,1.066,0.139,1.716,0.386c0.195,0.07,0.389,0.087,0.563,0.054l0.089,0.05v1.352H66.749
	z M73.643,44.569c-0.068,1.053-0.087,2.071-0.087,3.069c0,0.829,0.019,1.846,0.087,3.039l-0.087,0.225h-1.035l-0.087-0.225
	l0.052-1.354c0.035-0.439,0.035-0.997,0.035-1.686c0-0.668-0.018-1.685-0.087-3.069l0.087-0.21h1.035L73.643,44.569z M85.382,44.922
	l-1.669-0.035l-1.067,0.017c-0.055,0.862-0.068,1.773-0.068,2.735c0,0.863,0.014,1.897,0.068,3.105l-0.055,0.158h-1.088
	l-0.072-0.158l0.072-1.332c0-0.455,0.021-1.055,0.021-1.773c0-0.723-0.021-1.296-0.039-1.735l-0.052-1.017h-1.034l-1.65,0.035
	c0.035-0.282,0.073-0.461,0.125-0.563h0.07h1.731h0.708h0.684h0.771h0.771h1.58h0.084C85.328,44.465,85.351,44.64,85.382,44.922z
	 M95.839,44.444l-0.734,1.058c-0.373,0.541-0.899,1.314-1.616,2.35v0.193l0.104,2.699l-0.068,0.158h-1.108l-0.046-0.158
	c0.046-1.42,0.082-2.311,0.082-2.699v-0.3c-0.543-0.771-1.084-1.542-1.666-2.298l-0.682-1.003l0.052-0.085h1.053l0.142,0.085
	l0.54,0.932c0.456,0.827,0.899,1.54,1.3,2.178c0.278-0.386,0.687-1.093,1.244-2.106l0.549-1.003l0.142-0.085h0.667L95.839,44.444z
	 M114.878,46.063l-0.423,0.015c-0.296-0.821-0.946-1.242-1.931-1.242c-0.65,0-1.195,0.247-1.634,0.755
	c-0.453,0.505-0.683,1.125-0.683,1.84c0,0.809,0.264,1.511,0.771,2.106c0.489,0.579,1.035,0.878,1.629,0.878
	c0.933,0,1.6-0.246,1.951-0.721l0.241,0.371c-0.28,0.331-0.539,0.577-0.804,0.701c-0.35,0.176-0.824,0.264-1.438,0.264
	c-0.912,0-1.703-0.336-2.386-1.004c-0.7-0.662-1.055-1.506-1.055-2.472c0-0.863,0.335-1.634,1.032-2.315
	c0.689-0.667,1.478-1.017,2.354-1.017c0.51,0,1.072,0.139,1.719,0.386c0.195,0.07,0.391,0.087,0.563,0.054l0.089,0.05v1.352H114.878
	z M126.983,47.622c0,0.914-0.369,1.722-1.125,2.421c-0.736,0.701-1.561,1.055-2.454,1.055c-0.947,0-1.79-0.354-2.507-1.036
	c-0.705-0.698-1.073-1.511-1.073-2.439c0-0.932,0.368-1.735,1.12-2.458c0.74-0.72,1.565-1.082,2.46-1.082
	c0.925,0,1.752,0.362,2.489,1.066C126.614,45.865,126.983,46.69,126.983,47.622z M125.894,47.622
	c-0.035-0.808-0.316-1.509-0.858-2.085c-0.526-0.6-1.104-0.897-1.737-0.897c-0.697,0-1.264,0.298-1.736,0.876
	c-0.477,0.598-0.684,1.281-0.631,2.106c0.017,0.808,0.297,1.489,0.844,2.089c0.526,0.596,1.103,0.894,1.734,0.894
	c0.683,0,1.247-0.298,1.719-0.88C125.703,49.132,125.912,48.43,125.894,47.622z M137.265,44.499
	c-0.072,0.423-0.104,1.455-0.104,3.14v1.176c-0.04,0.404-0.21,0.829-0.527,1.266c-0.406,0.598-0.966,0.911-1.668,0.928
	c-0.667,0.036-1.161-0.017-1.508-0.156c-0.461-0.174-0.792-0.387-0.986-0.65c-0.189-0.278-0.329-0.736-0.384-1.422l-0.017-1.141
	c0-1.701-0.039-2.735-0.109-3.14l0.049-0.14h1.054l0.073,0.14l-0.073,1.353c-0.014,0.455-0.032,1.051-0.032,1.787
	c0,0.456,0.019,0.791,0.032,0.969c0.041,0.35,0.096,0.611,0.159,0.805c0.234,0.686,0.792,1.035,1.692,1.035
	c0.276,0,0.575-0.106,0.895-0.332c0.258-0.192,0.457-0.439,0.597-0.736c0.086-0.213,0.156-0.51,0.187-0.895l0.018-0.846
	c0-0.734-0.018-1.332-0.033-1.785l-0.053-1.354l0.053-0.139h0.633L137.265,44.499z M148.055,50.744l-0.069,0.158h-1.247
	l-0.173-0.158c-0.125-0.209-0.268-0.417-0.423-0.629l-0.454-0.596c-0.354-0.545-0.912-1.333-1.648-2.404l-0.58-0.771
	c-0.056,0.438-0.087,0.876-0.087,1.294c0,0.863,0.031,1.897,0.087,3.105l-0.056,0.158h-0.612l-0.069-0.158l0.069-1.332
	c0.02-0.455,0.02-1.055,0.02-1.773l-0.035-1.383l-0.054-1.318v-0.438l0.069-0.14h0.723c0.281,0.492,0.627,1.037,1.017,1.595
	c0.386,0.6,0.944,1.456,1.718,2.582l1.107,1.525l0.016-0.475c0.018-0.507,0.034-1.153,0.034-1.948c0-0.734-0.017-1.332-0.034-1.785
	l-0.071-1.354l0.071-0.139h0.613l0.069,0.139c-0.069,1.058-0.103,2.106-0.103,3.14C147.952,48.502,147.985,49.534,148.055,50.744z
	 M158.884,46.063l-0.423,0.015c-0.313-0.821-0.948-1.242-1.932-1.242c-0.651,0-1.191,0.247-1.631,0.755
	c-0.454,0.505-0.682,1.125-0.682,1.84c0,0.809,0.259,1.511,0.767,2.106c0.495,0.579,1.038,0.878,1.632,0.878
	c0.931,0,1.601-0.246,1.952-0.721l0.244,0.371c-0.284,0.331-0.542,0.577-0.808,0.701c-0.353,0.176-0.825,0.264-1.435,0.264
	c-0.918,0-1.709-0.336-2.392-1.004c-0.698-0.662-1.052-1.506-1.052-2.472c0-0.863,0.331-1.634,1.038-2.315
	c0.683-0.667,1.472-1.017,2.351-1.017c0.508,0,1.066,0.139,1.715,0.386c0.193,0.07,0.389,0.087,0.564,0.054l0.086,0.05v1.352
	H158.884z M165.778,44.569c-0.07,1.053-0.088,2.071-0.088,3.069c0,0.829,0.018,1.846,0.088,3.039l-0.088,0.225h-1.02l-0.104-0.225
	l0.054-1.354c0.035-0.439,0.049-0.997,0.049-1.686c0-0.668-0.034-1.685-0.103-3.069l0.103-0.21h1.019L165.778,44.569z"/>
</svg>
