<?xml version="1.0" encoding="utf-8"?>
<!-- Generator: Adobe Illustrator 15.1.0, SVG Export Plug-In . SVG Version: 6.00 Build 0)  -->
<!DOCTYPE svg PUBLIC "-//W3C//DTD SVG 1.1//EN" "http://www.w3.org/Graphics/SVG/1.1/DTD/svg11.dtd">
<svg version="1.1" id="Layer_1" xmlns="http://www.w3.org/2000/svg" xmlns:xlink="http://www.w3.org/1999/xlink" x="0px" y="0px"
	 width="260px" height="260.001px" viewBox="-50.948 42.094 260 260.001" enable-background="new -50.948 42.094 260 260.001"
	 xml:space="preserve">
<linearGradient id="SVGID_1_" gradientUnits="userSpaceOnUse" x1="70.251" y1="-43.0833" x2="70.251" y2="-286.2756" gradientTransform="matrix(1 0 0 -1 8.3999 6.1265)">
	<stop  offset="0" style="stop-color:#384048"/>
	<stop  offset="1" style="stop-color:#33444E"/>
</linearGradient>
<path fill="url(#SVGID_1_)" d="M199.677,266.927l-5.6,8.613l7.703,8.526H142.6v-11.998h-9.313v-5.109h66.391V266.927z
	 M17.61,275.461h121.913v16.941H17.61V275.461z M-42.868,266.927h66.315v5.03h-9.242v12.086h-59.244l7.688-8.605L-42.868,266.927z
	 M17.373,84.635c0-1.306,1.451-2.271,3.306-2.271c1.787,0,3.247,0.965,3.247,2.271c0,1.305-1.459,2.356-3.239,2.356l-0.811-0.079
	c-2.503,2.832-2.752,6.398-2.752,6.398v5.086h-30.795c0,0,0.083-3.631,0-4.936c-0.17-1.519-2.112-5.022-3.337-6.478h-0.396
	c-1.878,0-3.33-1.052-3.33-2.357c0-1.305,1.452-2.277,3.33-2.277c1.792,0,3.223,0.973,3.223,2.277l-0.063,0.404
	c7.604,8.035,13.624,9,14.415-0.325h3.005c0.17,8.938,4.785,8.851,14.343,0.57C17.464,85.141,17.373,84.888,17.373,84.635z
	 M-1.344,81.487c0-1.305,1.451-2.349,3.215-2.349c1.87,0,3.33,1.044,3.33,2.349c0,1.289-1.459,2.246-3.33,2.246
	C0.115,83.741-1.344,82.784-1.344,81.487z M-13.588,102.391c0,0.245-0.253,2.848,1.708,3.662
	c4.445,1.771,12.706-0.436,15.233,11.255c0.162,0.403,0.728,0.569,1.06-0.079c-0.332-6.811,3.623-10.124,9.954-11.753
	c1.784-0.563,3.492-0.989,3.88-2.033c0.316-1.123-0.55-5.102,3.167-5.102c0.494,0,1.701,0.324,1.792,1.543
	c0.241,2.111-1.467,2.665-0.902,3.4c0.665,0.814,0.17,1.613,0.099,1.692c-0.565,0.744-0.882,0.42-3.093,1.385
	c-2.432,1.067-3.63,2.507-3.962,3.416c-0.249,0.808-0.17,0.641,0,1.709c0.083,1.187,2.44,1.764,1.855,1.906
	c-0.649,0.118-1.934,0.253-2.258,0.664c-0.324,0.514-1.53,2.024-3.239,2.199c-1.701,0.229-1.701-0.096-2.911,0.545
	c-3.31,1.543-3.966,3.971-4.22,5.022c-0.146,1.076-0.324,1.313-0.791,0.989c-0.415-0.333-0.099-0.886-0.909-2.033
	c-0.89-1.139-1.625-3.227-4.129-3.321c-1.629-0.079-4.868,0.316-5.671-0.807c-1.491-2.081-2.776-1.765-2.867-2.35
	c0-0.324,1.475-0.482,1.313-1.851c-0.17-1.479-0.826-2.349-3.254-3.504c-2.44-1.131-4.544-1.131-4.936-1.7
	c-0.332-0.562-0.332-0.728-0.17-1.385c0.253-1.123,0.107-0.633-0.807-1.447c-0.894-0.886-0.479-4.453,1.764-4.311
	C-14.236,100.209-13.588,101.679-13.588,102.391z M-6.624,113.836c0.17,1.281,1.305,2.191,2.535,2.025
	c1.19-0.175,2.104-1.29,1.918-2.603c-0.154-1.218-1.19-2.096-2.511-1.953C-5.896,111.487-6.786,112.602-6.624,113.836z
	 M7.961,113.006c0.17,1.297,1.305,2.198,2.527,2.024c1.218-0.15,2.108-1.305,1.946-2.499c-0.162-1.313-1.214-2.207-2.511-2.033
	C8.701,110.648,7.799,111.811,7.961,113.006z M21.422,164.724l-1.285,5.029c-0.569-1.272-2.116-0.814-3.184-0.166l1.942-5.837
	C20.046,162.462,21.09,162.786,21.422,164.724z M15.423,183.2c-1.776,5.094-7.138,10.875-11.916,14.418
	c-4.615,3.014-0.811-0.403-0.728-0.641c6.236-6.644,8.099-9.554,10.618-15.478C14.458,180.455,16.4,181.508,15.423,183.2z
	 M22.637,147.054v5.268c-0.882-0.973-1.772-0.973-2.669,0v-5.268C20.695,145.426,21.846,145.283,22.637,147.054z M17.942,131.988
	c2.357,2.032,2.669,3.717,3.001,5.654c-0.17-0.213-2.104-2.183-3.001-0.15c-0.479-1.795-1.127-3.258-2.44-4.381
	C15.024,133.04,14.775,130.034,17.942,131.988z M12.596,146.983l0.233,5.252c-0.874-0.878-1.788-0.878-2.575,0.166l-0.249-5.188
	C10.642,145.528,11.706,145.283,12.596,146.983z M6.197,132.644c2.428,1.851,3.401,2.966,4.128,4.919
	c-0.17-0.237-3.642-3.005-3.958,0.262c-0.558-1.788-1.214-2.935-2.527-3.884C3.259,133.831,2.942,130.92,6.197,132.644z
	 M133.378,84.635c0-1.306,1.463-2.357,3.31-2.357c1.8,0,3.259,1.052,3.259,2.357c0,0.253,0,0.403-0.091,0.648
	c9.475,8.186,14.109,8.352,14.343-0.569h2.915c0.818,9.253,6.813,8.272,14.435,0.324l-0.1-0.403c0-1.306,1.539-2.357,3.338-2.357
	c1.775,0,3.215,1.052,3.215,2.357c0,1.305-1.447,2.356-3.215,2.356l-0.502-0.079c-1.206,1.455-3.176,4.928-3.231,6.557
	c-0.17,1.306,0,4.936,0,4.936h-30.802v-5.086c0,0-0.226-3.566-2.832-6.398L136.68,87C134.825,86.992,133.378,85.94,133.378,84.635z
	 M152.174,81.408c0-1.218,1.467-2.262,3.23-2.262c1.784,0,3.33,1.044,3.33,2.262c0,1.273-1.546,2.333-3.33,2.333
	C153.641,83.741,152.174,82.681,152.174,81.408z M170.982,102.328c-0.092-0.648,0.636-2.119,2.187-2.277
	c2.273-0.079,2.752,3.495,1.851,4.302c-0.89,0.878-1.139,0.333-0.89,1.456c0.17,0.648,0.17,0.814-0.162,1.455
	c-0.324,0.569-2.52,0.569-4.932,1.7c-2.436,1.06-3.085,2.025-3.238,3.401c-0.171,1.486,1.376,1.558,1.277,1.953
	c0,0.482-1.377,0.262-2.832,2.286c-0.803,1.123-4.05,0.799-5.679,0.87c-2.511,0.095-3.23,2.127-4.05,3.321
	c-0.882,1.147-0.494,1.701-0.98,2.033c-0.396,0.237-0.558,0.087-0.818-0.973c-0.226-1.061-0.874-3.488-4.129-5.117
	c-1.19-0.554-1.305-0.324-3.006-0.475c-1.7-0.245-2.843-1.701-3.23-2.199c-0.332-0.482-1.546-0.546-2.195-0.728
	c-0.656-0.079,1.701-0.648,1.855-1.93c0.079-1.076,0.241-0.822-0.075-1.709c-0.332-0.878-1.464-2.254-3.896-3.321
	c-2.266-0.965-2.511-0.641-3.164-1.384c-0.075-0.167-0.569-0.879,0.079-1.788c0.648-0.735-1.06-1.194-0.874-3.313
	c0.154-1.306,1.298-1.543,1.855-1.543c3.642-0.079,2.752,3.979,3.167,5.102c0.313,1.044,2.018,1.376,3.805,2.033
	c6.327,1.629,10.302,4.855,10.053,11.753c0.332,0.546,0.826,0.403,0.98,0c2.591-11.666,10.867-9.476,15.32-11.271
	C171.223,105.23,170.891,102.644,170.982,102.328z M148.52,113.006c0.162-1.187-0.712-2.357-1.941-2.508
	c-1.198-0.174-2.357,0.72-2.503,1.938c-0.171,1.273,0.728,2.443,1.945,2.522C147.234,115.117,148.35,114.239,148.52,113.006z
	 M163.124,113.836c0.154-1.289-0.735-2.428-1.953-2.539c-1.23-0.149-2.357,0.729-2.516,1.954c-0.162,1.226,0.735,2.365,1.941,2.507
	C161.819,115.931,162.946,115.03,163.124,113.836z M135.881,164.644c0.32-1.945,1.455-2.19,2.499-0.965l2.025,5.838
	c-1.044-0.57-2.583-1.147-3.231,0.158L135.881,164.644z M141.872,183.121c-0.882-1.7,1.052-2.666,2.124-1.7
	c2.42,6.011,4.274,8.842,10.519,15.486c0.099,0.236,3.888,3.732-0.728,0.648C148.998,194.075,143.68,188.294,141.872,183.121z
	 M134.754,146.983c0.735-1.7,1.854-1.55,2.582,0.079v5.188c-0.803-0.965-1.692-0.965-2.582,0V146.983z M139.361,131.988
	c3.167-1.946,3.005,0.957,2.439,1.139c-1.218,1.052-1.854,2.499-2.356,4.382c-0.966-2.033-2.836-0.079-2.998,0.071
	C136.778,135.705,137.103,133.933,139.361,131.988z M144.724,146.983c0.874-1.7,2.024-1.463,2.688,0.15l-0.332,5.212
	c-0.826-0.973-1.629-1.06-2.59-0.095L144.724,146.983z M151.209,132.644c3.215-1.812,2.827,1.131,2.341,1.187
	c-1.285,1.052-1.941,2.198-2.526,3.986c-0.396-3.259-3.805-0.507-3.943-0.325C147.713,135.61,148.789,134.495,151.209,132.644z
	 M117.638,49.391c9.001,1.519,9.875,3.156,10.377,3.876c0.55,1.811,0.324,3.732,0,7.387c0,1.202-2.194,3.164-2.194,2.998
	c-0.415-5.434-1.06-3.805-3.006-5.513C120.157,55.371,118.133,51.749,117.638,49.391z M186.068,60.243
	c2.682,1.21,1.539,5.196,1.136,5.671c-2.116,4.129-6.091,6.81-13.383,7.063c2.195-1.061,5.445-1.701,6.659-7.135
	C181.283,61.461,182.814,59.27,186.068,60.243z M38.851,49.21c-0.491,2.349-2.523,6.003-5.094,8.764
	c-2.025,1.7-2.689,0.071-3.084,5.434c0,0.237-2.195-1.709-2.195-2.919c-0.324-3.638-0.479-5.584,0-7.355
	C28.964,52.389,29.846,50.767,38.851,49.21z M-29.497,60.077c3.258-0.973,4.706,1.226,5.532,5.592
	c1.281,5.434,4.544,6.074,6.644,7.134c-7.209-0.324-11.267-2.91-13.299-7.047C-31.02,65.186-32.25,61.302-29.497,60.077z
	 M121.221,59.025c1.447,0.728,2.18,2.198,2.682,4.619c0.305,1.218,2.024,1.858,5.651,1.534c-0.712,0.894-1.522,1.463-1.855,2.111
	c-0.98,3.085-1.629,6.573-2.104,10.543c-0.51,0.071-1.063-3.732-1.063-3.732c-1.617,1.368-3.718,2.609-5.999,3.732l-1.701,0.649
	c-2.918,2.688-5.509,7.537-9.403,12.156c-2.195,1.795-4.785,1.858-7.297,1.795c-0.554,0.166-4.211-0.814-4.211-0.814
	c0.07,0.087,4.855-1.945,4.855-1.945c1.219-0.736,3.089-1.701,4.465-3.813c1.376-2.539,2.267-6.074,2.583-10.859
	c0,0-0.503-5.441,2.681-8.519c0.332-0.569,0.739-1.052,1.143-1.945c0.487,0.807,0.487,1.131,0.729,1.7
	c1.063,1.297,1.708,1.851,2.439,3.409c0.071,0.237,0.396,0.324,0.656,0.569c-0.17-1.945-0.075-3.575,0.475-5.038
	C116.902,62.6,119.746,59.998,121.221,59.025z M172.374,61.302c3.147-0.577,5.572,0.222,6.948,2.342
	c-0.071,1.463,0.17,9.008-9.167,7.861c-1.522-1.613-3.555-2.848-4.781-2.428c-0.728,0.886,0,1.858,1.381,3.076
	c0.897,1.155,0.822,2.025,0.822,2.855c-6.478,0.965-11.84-3.251-13.217-10.385c-0.874-2.254-3.563-3.963-6.244-5.663
	c5.58-0.411,11.753,0.641,12.876-0.411c2.025-2.033,3.006-2.428,4.951-2.919c0.812,0,4.05,0.324,5.596,0.981
	c1.531,0,3.168-0.403,4.544-1.053C175.775,57.57,174.545,59.515,172.374,61.302z M-15.866,61.136
	c-2.187-1.787-3.318-3.82-3.733-5.766c1.376,0.648,3.005,0.973,4.56,0.973c1.53-0.546,4.769-0.973,5.58-0.878
	c1.961,0.411,3.005,0.87,4.947,2.84c1.143,1.131,7.3,0,12.975,0.49c-2.752,1.7-5.343,3.322-6.245,5.671
	c-1.455,7.15-6.81,11.342-13.208,10.361c-0.087-0.799-0.162-1.692,0.72-2.832c1.404-1.21,2.116-2.198,1.404-3.076
	c-1.234-0.42-3.176,0.791-4.714,2.428c-9.333,1.131-9.17-6.406-9.242-7.869C-21.454,61.374-19.025,60.567-15.866,61.136z
	 M64.947,106.607c-0.333-0.981,0.648-1.464,1.376-0.878c1.7,3.219,2.935,4.785,7.138,8.336c0.079,0.174,0.17,0.72-0.486,0.419
	C69.736,112.547,66.185,109.454,64.947,106.607z M61.075,96.562c0.218-1.06,0.965-1.139,1.692-0.498l1.377,3.18
	c-0.729-0.333-1.788-0.657-2.195,0.078L61.075,96.562z M60.427,86.913c0.554-0.901,1.281-0.822,1.775,0.079v2.832
	c-0.577-0.554-1.127-0.554-1.775,0V86.913z M77.752,183.05c0-1.376,1.06-2.42,2.357-2.42c1.376,0,2.436,1.044,2.436,2.42
	c0,1.297-1.06,2.436-2.436,2.436C78.819,185.477,77.752,184.346,77.752,183.05z M76.941,198.868
	c-1.206,1.194-2.025,2.499-2.357,3.946l-0.063,4.881l0.818,2.989l0.324,7.704c-0.253,1.787-2.772,1.708-3.168,2.254
	c-0.648,1.162-0.332,3.575-0.728,4.951c-0.569,1.851-1.945,2.847-2.107,3.234c-0.324,0.554,0,2.531,0,2.531
	c0.324,1.036,0.162,14.83,0.72,15.716c0.502,1.605,0.818,3.163,0.98,4.61c-0.087,1.614-0.648,2.421-1.7,2.421
	c-0.827,0.174-1.306-0.396-1.476-1.526c0.099-2.99-0.079-7.048-0.486-12.386c-0.071-1.63-0.241-3.164-0.652-4.556l-3.006-5.197
	c-0.316-0.545-1.044-1.297-2.009-2.104l0.818-2.19c0.241-1.052,0.324-2.191,0.241-3.425c2.116-0.063,3.816-0.941,5.094-2.421
	c2.927-2.356,1.297-10.613-2.104-12.71c-1.53-1.083-3.417-0.886-5.758-0.498c-2.757,0.728-4.698,1.692-5.015,4.129
	c-0.249,2.024,0.226,2.76,1.692,2.673c1.459-0.411,1.135-1.519,2.341-2.586c1.476-0.965,3.563-0.886,4.939-0.316
	c2.278,1.455,2.527,5.655,1.784,7.055c-1.281,1.455-2.757,1.709-4.698,1.14c-0.633-0.254-1.792-1.377-1.144-2.539
	c0.898-0.807,1.377-0.641,1.954-0.214c0.799,0.648,1.7,0.648,2.266-0.174c0.55-0.878,0.083-1.851-0.98-2.57
	c-0.826-0.515-2.024-0.569-3.718-0.174c-2.024,0.98-2.851,2.926-2.681,4.714c0.324,2.19,1.305,4.128,3.081,4.286
	c0.249,0.823,0.249,1.526,0.07,2.271c-0.648,1.795-1.376,3.092-2.179,3.97c-0.897,0.499-2.024,0.499-3.417,0.079
	c-1.467-0.822-2.59-2.981-3.321-6.398c-0.558-2.277-1.522-3.82-3.006-4.603c-1.285-0.349-2.017-1.076-2.187-2.199
	c0-1.542,1.542-1.858,3.879-1.621c2.116-0.831,2.603-1.464,3.583-3.639c0.154-0.174,0.874-1.297,0.977-1.455
	c0.229-0.664,0.067-1.4,0-2.049l0.067-1.06c0.565-3.63,2.437-3.147,3.967-3.963c0.17-0.087,0.415-0.316,0.415-0.633
	c-0.17-5.679,2.674-8.035,9.064-8.431c2.273-3.892,4.71-5.212,8.842-3.836v9.926h0.04V198.868z M57.425,232.26
	c1.294-0.237,2.429-0.83,3.318-1.613c0.162,0.554,0.407,0.965,0.739,1.297c-0.332,4.129-0.407,8.416-0.253,13.026l0.577,0.87
	c0.15,1.646,0.15,1.962-0.253,2.61c-0.479,0.332-1.127,0.079-1.459-0.174c-0.897-0.965-1.139-1.613-1.376-2.674
	c-0.333-1.787-0.412-4.049-0.412-6.723c-0.236-0.229-0.569-0.878-0.664-1.708L57.425,232.26z M83.438,189.203
	c1.052-0.901,2.429-1.139,3.975-0.648c1.297,0.973,2.115,2.198,2.673,3.82c3.492-0.419,5.759,0.245,6.901,1.938
	c0.403,1.06,0.403,2.19,0,3.417c2.835,1.692,4.615,3.068,5.347,4.278c1.052,1.543,1.052,2.919-0.099,3.979
	c-0.226,0.744-0.226,1.194,0,1.526l2.688,3.425c1.468,1.771,1.223,3.386-0.558,4.777c-0.423,0.965-0.423,1.692,0.087,2.183
	c1.701,3.575,2.342,6.589,2.018,8.985c-0.641,1.542-1.701,1.645-3.318,0.427l-0.075-8.265c-0.826-1.867-3.005-1.147-2.922,0.822
	v9.476c0.063,1.297,0.486,2.752,0.728,3.796c0.316,0.728,0.17,10.053,0.17,10.053c-0.17,1.717-0.502,3.014-0.98,3.899l-2.195,2.752
	c-0.332,0.079-0.558,0-0.648-0.411c0.886-5.979,0.949-11.271,0.237-15.803l-3.88-8.763c-0.407-3.488-0.577-6.375-0.253-8.827
	c0.818-1.708,1.63-2.855,2.357-3.488c0.656-1.858,0-2.602-1.855-2.254c-2.436,1.851-3.479,4.912-3.238,9.223
	c0.728,3.242,0.98,5.441,0.728,6.422c-0.475,0.396-0.799,0.949-0.882,1.692c-0.494,2.595-0.332,5.03-0.079,7.546l-0.486,8.201
	c-0.577,1.194-1.306,2.01-2.116,2.5c0.083-9.713-0.241-15.629-0.89-18.547c-0.728-2.84-1.376-5.118,0.091-6.984
	c0.565-2.024,0.233-3.733,0.233-3.733l-0.882-3.4c-0.415-2.238-0.237-4.698,0.558-7.451c0.17-3.163-0.98-5.347-3.4-6.723v-9.823
	h-0.032V189.203z M184.19,156.53c0.17,1.305,0.233,2.531,0.233,3.741l3.33,4.936c-0.092-0.563,0-2.595-1.377-4.706
	C185.736,159.211,185.017,157.835,184.19,156.53z M184.036,168.046c-0.162,1.384-0.396,2.769-0.728,4.05l6.557,6.817l-0.241-3.163
	C187.832,173.392,186.23,171.138,184.036,168.046z M181.85,177.687l-1.151,3.321c3.492,3.409,7.209,6.558,11.191,9.563l-0.249-2.183
	C187.104,184.173,184.1,180.63,181.85,177.687z M178.99,185.224l-1.451,3.322c3.321,3.733,8.747,8.099,16.197,12.995
	c-0.079-0.436,0-1.227-0.162-1.63C187.275,194.233,182.398,189.377,178.99,185.224z M175.929,191.956l-2.681,5.441
	c6.011,7.292,13.802,14.742,23.355,22.391c-1.949-3.654-2.93-7.142-3.4-10.559C189.707,207.125,184.036,201.288,175.929,191.956z
	 M157.521,147.379c4.129-6.082,10.057-10.535,16.625-10.14c0.253-0.973-0.249-1.851-1.538-2.752
	c-1.463-0.656-2.357-0.403-4.453,0.648c-3.238,0.079-5.434-0.577-6.651-2.024c-0.17-0.333,0-0.578,0.407-0.657l5.505-2.104v-0.814
	c-3.318,0.886-6.818,0.973-10.456,0.419c-1.862-0.324-2.994-1.708-3.318-4.224c-0.415-0.886,0.324-0.973,0.882-0.49
	c0.882,1.384,2.267,2.112,4.133,2.112c4.947-0.088,7.878-0.333,8.76-0.823c1.945-0.648,3.08-1.787,3.321-3.487
	c0.171-0.483-0.063-0.57-0.648-0.396c-2.511,1.052-3.238,0.72-4.868,0.648c-0.969,0-0.89-0.569,0.237-1.155
	c4.382-2.428,6.315-5.434,5.829-8.913c0.253-0.657,0.569-0.902,0.894-0.657c2.84,5.181,2.429,11.192-0.803,15.558
	c-0.232,0.27-0.316,0.515-0.316,0.847l0.495,0.648c8.099,9.895,13.532,21.402,17.258,34.35c2.594,12.085,5.434,43.532,10.223,52.138
	c1.771,5.03,3.958,9.476,6.561,13.62c-4.457,0.553-9.317-0.736-12.255-1.788l3.4,26.488l-18.555-5.655l-4.714-12.899
	c-0.241-0.642-0.648-0.957-1.439-0.412c-1.63,0.981-6.49,0.333-6.822,0.333c-1.293-0.254-1.7-0.167-1.878,0.498
	c-0.154,1.139-0.218,3.551-0.063,7.205c0.17,1.305,1.044,2.349,2.519,3.172l2.52,0.965c1.214,0.332,2.104,0.98,2.59,1.882
	c0.396,1.281,1.29,2.5,2.674,3.544c0.826,0.253,1.376,0.332,1.214,1.811c-0.17,1.115-1.044,1.772-1.854,1.693
	c-1.376-0.166-2.437-0.744-3.231-1.796c-1.475-2.024-3.337-3.551-5.596-4.611c-2.27-1.218-5.742-1.281-9.978,0
	c-4.935,1.78-9.063,4.065-11.654,6.581c-0.479,0.301-0.811,0.237-1.063-0.095l1.218-6.249c0.32-0.94,0.891-1.692,1.701-1.922
	l13.627-3.638l0.237-9.823c-2.926-2.025-5.03-4.619-6.406-7.696c-1.412-5.339-7.728-8.027-7.728-8.027
	c-2.42-1.439-3.653-2.516-5.255-2.587l-0.246-0.221c-1.214-0.096-3.4-0.096-6.478,0.079c-1.305,0.237-2.285,1.131-3.076,2.673
	l-0.91,2.483c-0.324,1.234-0.652,1.543-1.779,2.61c-1.305,0.498-2.527,1.463-3.492,2.752l-0.332,0.633v0.515
	c-1.854,5.908-17.815,30.64-44.082,40.858c-20.434-7.568-39.799-30.086-43.2-40.526v-0.411c-0.324-0.237-0.577-0.665-0.72-0.965
	c-0.98-1.432-2.116-2.31-3.507-2.809c-1.143-1.044-1.467-1.376-1.792-2.57l-0.882-2.594c-0.728-1.566-1.792-2.357-3.085-2.61
	c-2.99-0.158-5.192-0.229-6.481-0.158l-0.17,0.237c-1.625,0.166-2.835,1.21-5.343,2.587c0,0-6.319,2.673-7.696,8.114
	c-1.376,3.069-3.492,5.584-6.315,7.608l0.226,9.887l13.541,3.575c0.803,0.316,1.451,0.965,1.783,2.024l1.124,6.232
	c-0.218,0.309-0.542,0.309-1.044,0c-2.511-2.515-6.723-4.697-11.67-6.485c-4.211-1.376-7.696-1.218-9.891-0.079
	c-2.357,1.044-4.219,2.57-5.667,4.596c-0.74,1.146-1.855,1.708-3.231,1.795c-0.811,0.166-1.708-0.482-1.863-1.613
	c-0.162-1.534,0.486-1.534,1.277-1.866c1.313-0.981,2.203-2.184,2.689-3.544c0.399-0.846,1.297-1.55,2.519-1.882l2.519-0.965
	c1.459-0.729,2.357-1.788,2.59-3.069c0.099-3.733,0.099-6.09-0.162-7.229c-0.079-0.728-0.494-0.831-1.862-0.569
	c-0.233,0.079-5.197,0.728-6.81-0.254c-0.735-0.545-1.206-0.213-1.467,0.436l-4.698,12.813l-18.571,5.655l3.413-26.433
	c-2.934,0.988-7.704,2.286-12.255,1.717c2.606-4.034,4.884-8.59,6.667-13.525c4.785-8.589,7.605-40.06,10.112-52.217
	c3.832-12.963,9.258-24.392,17.357-34.35l0.399-0.569c0.103-0.324-0.083-0.648-0.316-0.894c-3.239-4.366-3.555-10.369-0.827-15.479
	c0.333-0.332,0.665-0.079,0.981,0.648c-0.569,3.496,1.376,6.406,5.837,8.843c1.056,0.562,1.143,1.146,0.17,1.146
	c-1.617,0.15-2.357,0.475-4.884-0.585c-0.542-0.245-0.791-0.079-0.637,0.411c0.324,1.613,1.384,2.84,3.326,3.496
	c0.902,0.396,3.809,0.728,8.764,0.814c1.854,0,3.215-0.743,4.132-2.19c0.566-0.499,1.293-0.324,0.882,0.562
	c-0.316,2.499-1.467,3.859-3.322,4.12c-3.642,0.641-7.134,0.482-10.456-0.419v0.822l5.588,2.104
	c0.423,0.174,0.487,0.403,0.423,0.728c-1.313,1.376-3.5,2.127-6.66,2.032c-2.183-1.131-3.084-1.384-4.54-0.728
	c-1.38,0.973-1.776,2.024-1.38,3.077c6.319-0.403,12.069,3.732,16.198,9.641c3.5,2.769,5.038,11.191,3.907,18.002
	C2.603,180.385-9.06,197.967-31.676,218.08l-4.37,31.257l2.922-1.123l3.084-22.288l2.658-1.076l-3.322,22.708l7.549-2.254
	l10.689-27.73l2.278-3.005l2.835-1.519c1.293-0.42,1.788,0.475,1.293,1.447c-1.942,1.858-3.148,3.566-3.717,5.022l-3.164,8.178
	c-0.827,1.945-0.649,3.504,0.32,4.619c0.739,1.392,5.421,1.313,9.641-0.301c5.109-3.417,5.58-5.758,6.881-9.175
	c1.226-3.068,3.089-5.212,5.6-6.319c4.54-3.875,3.887-7.593,3.887-8.344l0.49-10.788c0.162-1.606,1.685-6.407,7.542-17.408
	c5.995-16.302,7.613-29.438,4.698-39.404c-0.803-7.205-4.129-11.12-10.041-11.753l-8.028,0.482c-1.522-0.728-2.574-1.7-3.167-2.989
	c-0.728-1.219-0.479-1.709,0.728-1.472c0.748,1.139,1.792,1.796,3.167,1.858l5.347-0.396c1.629-0.174,2.931-0.814,3.67-2.111
	c1.855-2.578,0.866-6.24,1.123-10.29c0.253-2.032,2.025-2.428,2.844-0.577c0.502,1.154,0.423,2.111-0.324,2.848
	c-0.095,4.215-0.233,7.047-1.293,8.834c-0.989,1.21-0.755,1.954,0.72,2.104c2.99,1.858,5.426,4.531,7.134,8.099
	c6.489,16.783,3.215,33.97-9.096,58.37c-1.455,3.971-2.025,8.756-1.771,14.269l0.063,3.321h9.428l3.816-13.619
	c0.324-0.902,0.977-1.456,2.025-1.709l2.752-0.498v-50.263H64.56c-0.324-0.222,0.98-3.48,1.779-3.876
	c0.818-0.498,8.839-1.953,8.839-1.953v-4.706c0-0.625-1.946-1.852-2.757-2.65c-0.807-0.83-1.7-2.602-2.515-3.978
	c-0.894-1.472-1.867-3.409-2.271-3.971c-0.396-0.569-2.598-4.548-3.246-5.584c-0.648-1.139-0.812-3.164-1.136-4.706
	c-0.324-1.455-2.752-5.347-3.879-7.134c-1.63,1.463-2.341,1.7-4.777,2.752c-2.277,0.577-4.465,0.973-6.739,0.901
	c-4.049-0.403-6.813-2.024-8.19-4.784c-0.89-2.531-0.573-5.197,0.894-8.107c0.233-0.332,0.411-0.332,0.645,0l5.268,7.197
	c2.357,2.357,4.607,3.267,7.466,2.942c2.657-0.656,3.223-1.154,4.698-2.199l-0.827-2.032c-0.72,1.154-1.613,1.866-2.752,2.27
	c-1.064,0.491-2.108,0.578-3.089,0.246c-1.293-0.42-2.266-0.902-2.673-1.472c0.57-3.48,5.284-5.979,5.913-6.304
	c0,0,0.415-0.253,0.747-0.324l-0.423-1.542c-4.777-0.158-21.786,0.324-30.071-14.506c-3.872-6.976-7.118-15.154-11.67-18.151
	c-3.322-1.796-5.904-1.622-9.159,0.237c1.788-2.033,3.326-3.322,5.279-3.805c1.613-0.261,3.816,0,5.651,0
	c5.039,1.139,11.599,7.838,11.283,7.601c0.724,1.202,1.613,5.347,2.341,9.721c0.502,1.875,2.926,4.05,3.895,5.592
	c-0.494-2.111-0.628-4.129-0.308-5.829c1.854,1.479,2.989,1.7,5.663,2.761c3.401,2.443,5.094,6.406,7.704,9.965
	c1.95,2.191,5.667,3.654,8.764,3.971l-0.083-0.411l-0.17-0.743c-1.692-0.143-3.967-0.467-5.758-1.993
	c-3.654-4.706-6.308-9.578-9.242-12.156l-1.701-0.657c-2.282-1.146-4.307-2.333-5.999-3.717c0,0-0.554,3.717-1.064,3.717
	c-0.396-3.954-1.123-7.442-2.024-10.535c-0.396-0.728-1.124-1.21-1.926-2.111c3.634,0.237,5.339-0.316,5.758-1.534
	c0.411-2.437,1.143-3.892,2.657-4.698c1.491,1.067,4.228,3.646,5.279,6.161c0.479,1.534,0.657,3.164,0.479,5.102
	c0.178-0.332,0.502-0.396,0.665-0.562c0.728-1.519,1.376-2.104,2.42-3.394c0.17-0.569,0.17-0.973,0.664-1.7
	c0.486,0.878,0.811,1.376,1.214,1.858c3.167,3.172,2.665,8.59,2.578,8.59c0.412,4.706,1.214,8.36,2.59,10.867
	c1.376,2.024,1.941,2.357,3.239,2.855c0.415-6.248,4.132-11.35,5.841-11.753c0.332-0.071,0.728-0.499,0-0.657
	c-1.297-0.482-2.357-1.534-2.527-3.646c-0.075-1.464-0.648-8.922-0.407-9.721c0.237-0.822,1.55-0.166,1.629,0.245
	c0.162,0.403,0.412,5.742,0.649,8.012c0.315,2.191,2.356,3.654,3.084,3.979s4.683,0.079,5.742,0.079
	c0.965,0,0.237-0.253,0.826-0.498c0.649-0.324,1.044-0.324,1.377-0.079c0.399,0.174,0.162,1.21-0.162,1.685
	c-0.412,0.577-1.863,1.305-3.101,1.55c-1.19,0.237-2.342-0.245-3.224-0.245c-2.024,0.175-2.934,1.147-3.653,1.875
	c-1.701,1.779-2.591,3.938-3.484,7.774c-0.822,3.805,0.316,7.775,1.048,9.642c0.728,1.93,2.195,6.572,3.48,9.151
	c1.305,2.53,3.088,4.689,3.903,6.319c0.87,1.7,0.965,1.779,1.38,4.382c0.475,2.681,4.856,10.63,6.889,13.532
	c2.025,2.919,4.05,3.243,6.636,3.567c2.606,0.403,3.733-0.735,4.058-0.902c0.324-0.213-3.492-7.213-4.22-8.099
	c-0.633-0.886-1.206-0.973-1.206-0.973s-0.316-0.814,0-1.06c0.241-0.316,2.535,0.245,3.726,0.886
	c1.158,0.562,6.655,14.007,6.987,14.434c0.316,0.491,4.6,1.598,4.86,1.527c0.324-0.071-3.726-10.622-3.654-11.018
	c0.1-0.507,1.792,0,2.025,0c0.253,0,3.725,11.278,3.725,11.278l1.63,0.475c-0.648-2.246-2.429-14.672-2.599-14.822
	c-12.069-8.106-16.368-14.094-19.278-18.057c-3.077-4.224-3.643-8.605-3.726-13.066c-0.087-4.548,1.459-6.074,2.188-6.976
	l0.415-0.396c2.017-2.19,5.094-3.813,8.494-4.058c0-0.396,0.98-0.324,1.7-0.324c0.835,0,1.061-0.15,1.151-0.807
	c0.079-0.577-0.565-0.973-1.376-1.479c-0.827-0.546-1.483,0-2.927,0.316c-1.455,0.442-3.401-0.475-3.967-0.729
	c-0.494-0.229-0.411-0.474,0.233-0.648c1.775-0.403,3.081-0.482,3.896-1.914c-3.247,0.467-8.356,0.53-9.005,0.15
	c-0.486-0.324-1.522-1.455-1.854-2.032c-0.411-0.475,0.154-0.72,0.558-0.72c0.399,0,0.886,1.044,1.854,1.297
	c0.894,0.222,7.209-0.174,8.439-0.324c1.281-0.174,2.017-1.376,2.439-1.787c0.396-0.412,0-0.736-0.51-0.815
	c-0.55-0.087-2.356,0.403-3.076,0.403c-0.649,0-0.725,0-0.725-0.49c0-0.562,2.595-1.534,3.556-2.262
	c0.894-0.743,1.289-2.444,1.289-2.444s0.249-0.648,0.656-0.545c0.412,0.078,0.649,1.139,1.144,2.515
	c0.494,1.455-0.731,4.532-1.946,5.979c-0.241,0.174-0.648,0.435-1.214,0.569c0.51,0.569,4.307,5.275,6.244,8.273
	c0.819,1.194,1.693,2.752,2.583,4.452l0.818,0.815c1.206,1.938,3.321,3.329,6.489,3.171c4.453,0.403,8.017-1.471,10.041-3.741
	c2.61-3.487,4.382-7.545,7.703-9.965c2.689-0.974,3.828-1.298,5.667-2.674c0.324,1.621,0.17,3.726-0.225,5.758
	c0.965-1.526,3.321-3.653,3.815-5.513c0.728-4.382,1.594-8.597,2.357-9.815c-0.324,0.253,6.308-6.485,11.255-7.608
	c1.854,0,4.058-0.158,5.671,0.079c1.941,0.498,3.5,1.708,5.279,3.733c-3.255-1.867-5.856-2.025-9.159-0.166
	c-4.465,2.91-7.782,11.104-11.662,18.064c-8.368,14.996-25.958,14.672-31.297,14.427l-3.649-0.088l0.241,0.744
	c0.396-0.166,1.629-0.419,4.452,0.814c1.048,0.49,5.268,2.823,5.924,6.24c-0.502,0.633-1.467,1.131-2.681,1.534
	c-0.965,0.324-2.52,0.166-3.646-0.324c-1.052-0.324-2.024-0.973-2.843-2.119l0.415,2.27c1.376,1.131,1.926,1.779,4.698,2.342
	c2.752,0.324,5.01-0.563,7.367-2.896l5.271-7.236c0.237-0.309,0.486-0.309,0.641,0c1.491,2.918,1.808,5.6,0.901,8.114
	c-1.38,2.753-4.132,4.366-8.197,4.872c-2.259,0-4.382-0.324-6.739-0.965c-1.854-0.838-2.989-1.297-3.547-2.024
	c0.558,3.622,1.305,7.458,1.945,10.29c1.463,6.644,6.485,12.718,6.81,14.275c0.333,1.519-7.288-0.965-7.774-0.735
	c-0.502,0.229,1.854,11.745,1.467,11.824c-0.502,0.087-11.606-2.578-12.733-3.408c-1.214-0.729-1.941-4.208-2.437-4.604
	c-0.486-0.316-0.886,0.34-1.53,0.807c-0.656,0.569,0.071,3.662,0.72,4.231c0.657,0.633,3.247,1.131,3.896,1.519
	c0.648,0.498,1.06,1.629,1.468,1.866l1.934,1.519l-1.044,0.079h31.446v50.264l2.357,0.419c1.063,0.332,1.692,0.878,2.024,1.709
	l3.816,13.69l9.476-0.095l0.071-3.243c0.253-5.505-0.403-10.282-1.855-14.331c-12.318-24.416-15.474-41.508-9.06-58.37
	c1.779-3.567,4.129-6.248,7.217-8.021c1.377-0.245,1.709-0.98,0.637-2.19c-0.953-1.708-1.206-4.619-1.285-8.756
	c-0.731-0.822-0.818-1.795-0.316-2.918c0.795-1.851,2.583-1.368,2.907,0.664c0.162,4.05-0.827,7.695,1.052,10.29
	c0.818,1.21,2.024,1.938,3.733,2.119l5.268,0.324c1.376-0.095,2.428-0.656,3.155-1.795c1.226-0.324,1.476,0.166,0.731,1.471
	c-0.479,1.194-1.522,2.263-3.159,2.911l-8.052-0.475c-5.829,0.712-9.242,4.627-10.041,11.753
	c-2.927,10.045-1.313,23.182,4.698,39.483c5.904,11.009,7.466,15.707,7.545,17.416l0.479,10.709c0.1,0.814-0.641,4.54,3.903,8.415
	c2.504,1.06,4.366,3.164,5.572,6.248c1.376,3.504,1.8,5.846,6.992,9.262c4.128,1.614,8.826,1.614,9.546,0.237
	c1.064-1.06,1.143-2.609,0.415-4.563l-3.167-8.193c-0.641-1.535-1.863-3.243-3.832-5.094c-0.396-0.901,0-1.788,1.313-1.376
	l2.844,1.519l2.356,3.005l10.626,27.729l7.53,2.271l-3.239-22.707l2.682,1.06l3.076,22.304l2.836,1.123l-4.382-31.265
	c-22.62-20.113-34.274-37.695-35.102-52.865C152.731,158.562,154.198,150.385,157.521,147.379z M88.872,116.73
	c6.485,5.925,12.644,9.815,11.516,8.677c-0.17-0.237-1.625-3.971-1.941-4.619c-0.154-0.396-5.347-4.452-8.431-7.063L88.872,116.73z
	 M90.96,110.902c3.006,1.866,7.21,4.855,7.712,4.855c0.233-0.079,0-0.403-0.17-0.799c-0.079-0.332-4.275-3.662-6.956-5.766
	L90.96,110.902z M92.202,106.607c2.179,1.463,5.434,3.891,5.667,3.97c0.415,0.167-0.095-0.728-0.17-1.131
	c0-0.324-3.156-3.25-5.038-5.03L92.202,106.607z M93.092,101.174l3.959,3.4c0,0,0-0.648-0.324-1.463
	c-0.25-0.656-2.259-3.156-3.48-4.54L93.092,101.174z M92.93,94.363c0.17-0.49,2.512,2.595,2.512,2.595s0.17,0.079-0.333-1.044
	c-0.648-1.472-1.692-3.101-2.898-4.619C92.526,92.331,92.76,93.398,92.93,94.363z M81.26,135.705c-1.629,0.498-3.5-0.229-3.5-0.301
	c0,0-0.162,3.212-0.087,3.718c0,0.49,2.024,0.886,2.356,1.131c0.396,0.245,1.302-0.577,1.302-0.577S81.485,137.239,81.26,135.705z
	 M70.958,145.101h17.59c-0.558-0.309-2.582-2.175-3.547-1.938c-0.332,0.103,1.771,1.938,1.771,1.938s-3.002,0-3.401-0.15
	c-0.396-0.087-3.649-2.104-4.219-2.357C78.649,142.348,72.496,144.698,70.958,145.101z M66.406,145.101h4.145
	c-0.226-0.309-0.728-1.297-0.728-1.519C69.807,143.409,67.149,144.698,66.406,145.101z M122.498,201.106v20.912
	c1.313-1.281,2.278-2.815,3.104-4.54c1.123-2.262,1.123-5.821-0.253-10.045C124.444,205.1,123.57,202.997,122.498,201.106z
	 M35.216,222.35v-21.79c-1.214,2.025-2.278,4.382-3.168,6.897c-1.475,4.286-1.376,7.767-0.241,10.044
	C32.598,219.448,33.757,220.974,35.216,222.35z M75.664,185.541c-4.295-0.965-7.471,0.586-9.657,4.635
	c-6.153,0.237-9.4,3.243-9.717,8.985c-2.764,0.728-4.22,2.515-4.465,5.592c-2.906,0.237-4.615,2.42-5.196,6.572
	c-4.698,0-5.105,7.213,0.412,8.012c1.206,1.147,2.583,3.733,3.563,6.66c1.297,2.657,2.827,5.173,4.536,6.138
	c-0.154,3.4,0.241,5.758,0.89,7.553l0.569,7.388c0.807,1.851,2.104,3.883,4.145,3.946c3.223-0.213,3.809-2.515,2.757-6.881
	l0.332-8.748c0.55,0.475,0.977,1.456,1.198,2.753c0.502,3.48,0.502,8.669,0.961,15.486c1.233,3.147,2.024,2.752,3.815,3.242
	c2.104-0.174,3.247-1.226,3.718-3.836c0-2.104-0.316-3.883-0.882-5.425c-0.562-3.48-0.731-7.546-0.324-11.928
	c0.087-3.172,0.241-5.252,0.98-6.391c1.376-1.55,1.701-2.752,2.104-6.169c0.324-0.814,2.582-0.648,3.416-2.262
	c0.486-2.523,0.407-6.012-0.17-10.884c-0.89-2.246-1.123-4.365-0.728-6.375c0.162-1.55,0.98-2.285,2.599-2.198
	c1.388-0.087,2.341,0.83,2.764,2.673c0.063,1.867,0,3.504-0.332,5.109c-0.332,1.867-0.091,5.117,1.285,7.941
	c0.17,0.664-0.158,1.526,0.091,2.183c-0.396,1.376-1.214,2.128-1.467,5.03c0,1.629,0.886,4.382,0.886,4.382
	c0.969,2.12,1.463,7.308,1.463,15.708c-0.565,0.894-0.826,2.119,0.1,3.416c2.104,1.14,3.068,0.981,5.093-0.236
	c0.882-1.061,1.531-2.184,2.025-3.48c0.316-5.441,0.316-9.57-0.17-12.418c0.071-0.648,0.324-0.965,0.818-0.965
	c0.965,1.535,1.538,3.172,1.934,4.88c-0.071,8.748-0.969,13.778-0.72,15.7c0.396,1.218,1.53,1.866,3.986,1.708
	c1.771-0.807,4.856-5.654,4.856-5.654c0.648-3.654,0.731-7.87,0.162-12.584c-0.079-0.98-0.079-1.519,0.17-2.673
	c0.237-0.808,0.324-0.966,0.894-1.061c2.357,0.569,3.967-0.633,4.932-3.638c0.17-1.456,0.17-3.552-0.162-6.153
	c-0.162-1.526-0.55-2.832-1.476-3.828c2.278-3.797,1.709-7.467-1.692-11.089c1.214-4.563-0.648-8.036-5.505-10.377
	c0.162-4.54-2.439-6.738-7.873-6.636c-0.874-2.855-3.33-4.224-7.372-4.152c0.407-4.137-0.411-7.056-4.606-7.617
	C79.46,177.529,73.631,177.869,75.664,185.541z M59.45,174.855l-3.089-9.712l8.198-5.995H54.42l-3.168-9.729l-3.069,9.729h-10.14
	l8.178,5.995l-3.16,9.712l8.19-5.987L59.45,174.855z M86.765,174.855l-3.164-9.712l8.179-5.995H81.73l-3.16-9.729l-3.176,9.729
	H65.343l8.197,5.995l-3.167,9.712l8.197-5.987L86.765,174.855z M114.399,174.855l-3.156-9.712l8.187-5.995h-10.14l-3.069-9.729
	l-3.159,9.729h-10.14l8.186,5.995l-3.076,9.712l8.189-5.987L114.399,174.855z M-18.618,192.051
	c-8.099,9.309-13.778,15.146-17.258,17.171c-0.502,3.487-1.475,6.904-3.322,10.638c9.475-7.704,17.258-15.075,23.253-22.367
	L-18.618,192.051z M-21.786,185.311c-3.33,4.145-8.186,8.993-14.513,14.601c-0.087,0.403,0,1.194-0.087,1.63
	c7.383-4.802,12.73-9.262,16.131-12.9L-21.786,185.311z M-24.522,177.774c-2.278,2.918-5.184,6.398-9.815,10.701l-0.162,2.104
	c3.879-2.902,7.612-6.074,11.096-9.482L-24.522,177.774z M-26.638,168.046c-2.266,3.093-3.812,5.347-5.675,7.704l-0.162,3.163
	l6.47-6.715C-26.23,170.814-26.492,169.429-26.638,168.046z M-26.816,156.38c-0.799,1.376-1.53,2.761-2.187,4.137
	c-1.376,2.104-1.376,4.216-1.376,4.785l3.322-5.022C-26.954,158.982-26.879,157.684-26.816,156.38z M75.403,66.317
	c0,0.973,0.735,1.7,1.716,1.7c0.874,0,1.7-0.728,1.7-1.7c0-0.965-0.826-1.7-1.7-1.7C76.139,64.617,75.403,65.344,75.403,66.317z
	 M60.332,58.219c-0.091,0.482,0.095,0.878,0.502,1.202c0.324,0.427,1.123,0.648,2.179,1.06l2.931,1.297
	c0.874,0.403,1.629,0.166,2.429,1.061c0.731,0.814,1.063,1.7,1.305,2.428c0.237,0.822,0.237,1.534,0.656,2.603
	c0.324,0.973,0.162,1.376,0.641,1.605c0.558,0.237,0.89,0.174,1.206-0.222c0.332-0.324,0.494-1.297,0.665-2.024
	c0.063-0.657,0.395-1.717,1.143-2.603c0.72-0.965,2.519-2.104,4.22-2.437c1.692-0.237,2.242-0.087,3.618-0.403
	c1.475-0.411,2.194-0.554,2.44-1.297c0.17-0.735,0.232-1.613-0.819-1.938c-1.052-0.237-6.723-2.104-11.662-1.938
	c-4.86,0.174-9.629,1.131-10.14,1.044C60.743,57.641,60.332,58.219,60.332,58.219z M64.299,65.59c0,0.886,0.826,1.7,1.7,1.7
	c0.98,0,1.7-0.814,1.7-1.7c0-0.973-0.728-1.787-1.7-1.787C65.109,63.81,64.299,64.617,64.299,65.59z M52.628,55.062
	c0,0,14.822-1.866,18.16-1.93c3.317-0.103,9.629,1.123,12.243,1.613c2.674,0.475,7.783,0.158,8.1,0.396
	c0.332,0.332,0.878,0.981,0.083,1.63c-0.827,0.633-4.058,2.578-4.058,3.306c0,0.822,0.17,1.384-0.324,1.787
	c-0.558,0.324-1.052,0-2.682,0.831c-1.605,0.728-2.752,1.526-3.076,2.19c-0.324,0.562-0.479,0.403-0.399,1.21
	c0.075,0.729,0.811,1.29,0.399,1.605c-0.324,0.333-0.554,0-0.874,0.333c-0.324,0.324-1.381,1.392-2.682,1.392
	c-1.297,0-1.297-0.237-2.277,0.071c-2.583,0.894-3.322,2.682-3.548,3.417c-0.241,0.822-0.411,0.965-0.735,0.641
	c-0.316-0.222-0.162-0.546-0.731-1.526c-0.49-0.886-1.377-2.911-2.591-3.077c-1.214-0.253-3.4-0.324-4.22-0.901
	c-0.728-0.641-1.609-0.641-1.53-1.289c0.162-0.641,0.898-0.641,0.898-1.701c0-1.139-0.412-2.262-2.203-3.321
	c-1.7-1.052-3.48-1.376-3.733-1.788c-0.154-0.498,0-0.562,0.178-1.052c0.229-0.49,0.712-0.324-0.178-0.648
	c-0.874-0.237-3.4-0.822-3.942-1.376c-0.511-0.569-0.901-1.621-0.665-1.708C52.387,54.968,52.628,55.062,52.628,55.062z"/>
</svg>
